G75*
G70*
%OFA0B0*%
%FSLAX24Y24*%
%IPPOS*%
%LPD*%
%AMOC8*
5,1,8,0,0,1.08239X$1,22.5*
%
%ADD10C,0.1655*%
%ADD11R,0.1080X0.1080*%
%ADD12C,0.0493*%
%ADD13OC8,0.0710*%
%ADD14C,0.0710*%
%ADD15R,0.0720X0.0720*%
%ADD16OC8,0.0720*%
%ADD17OC8,0.0600*%
%ADD18C,0.0600*%
%ADD19C,0.0674*%
%ADD20R,0.1030X0.1030*%
%ADD21C,0.1030*%
%ADD22C,0.0640*%
%ADD23R,0.0440X0.0780*%
%ADD24C,0.0318*%
D10*
X002157Y022428D03*
X037590Y022428D03*
X037590Y002349D03*
D11*
X033556Y001778D03*
X030623Y001778D03*
D12*
X031134Y002971D03*
X033044Y002971D03*
D13*
X037650Y011189D03*
X012070Y018769D03*
D14*
X012070Y017369D03*
X037650Y012589D03*
D15*
X021950Y003569D03*
X018490Y003529D03*
X021630Y015689D03*
D16*
X021630Y014689D03*
X021630Y013689D03*
X021630Y012689D03*
X021630Y011689D03*
X021630Y010689D03*
X021630Y009689D03*
X020950Y003569D03*
X019950Y003569D03*
X017490Y003529D03*
X016490Y003529D03*
X015490Y003529D03*
D17*
X025440Y010169D03*
X027290Y002819D03*
X006990Y017959D03*
X001850Y017959D03*
D18*
X001850Y018659D03*
X006990Y018659D03*
X026140Y010169D03*
X027290Y003519D03*
D19*
X010639Y005056D03*
X009852Y002694D03*
X005128Y002694D03*
X005128Y007418D03*
X009852Y007418D03*
D20*
X002030Y007029D03*
D21*
X002030Y003092D03*
X002030Y005060D03*
D22*
X010570Y010219D03*
X010570Y012119D03*
X002930Y012779D03*
X002930Y010879D03*
D23*
X030816Y011165D03*
X031816Y011165D03*
X032816Y011165D03*
X032824Y021163D03*
X031824Y021163D03*
X030824Y021163D03*
D24*
X030810Y022089D03*
X030250Y022729D03*
X027930Y022009D03*
X027370Y021369D03*
X026650Y021129D03*
X027370Y019849D03*
X027930Y019849D03*
X031050Y018569D03*
X035610Y019449D03*
X036090Y018889D03*
X036090Y018089D03*
X037290Y020169D03*
X032810Y022009D03*
X023690Y016409D03*
X022970Y016009D03*
X022970Y016889D03*
X026650Y016169D03*
X026650Y014169D03*
X026650Y012009D03*
X025450Y011609D03*
X024410Y011609D03*
X023210Y010969D03*
X028250Y010969D03*
X030090Y010649D03*
X029770Y009689D03*
X028410Y008809D03*
X027690Y007529D03*
X027370Y006809D03*
X027690Y006169D03*
X027690Y004969D03*
X028410Y004009D03*
X029210Y003609D03*
X029530Y003289D03*
X032090Y004009D03*
X032490Y003689D03*
X035770Y003049D03*
X037610Y004409D03*
X038450Y009649D03*
X036490Y010489D03*
X032570Y010409D03*
X031850Y010409D03*
X031530Y013529D03*
X032810Y013529D03*
X033690Y013529D03*
X033690Y014249D03*
X036490Y014089D03*
X024330Y007769D03*
X023610Y006969D03*
X022810Y006489D03*
X020090Y006969D03*
X019610Y006489D03*
X017850Y007209D03*
X017370Y007209D03*
X016730Y007209D03*
X016090Y007529D03*
X015450Y007849D03*
X016090Y006329D03*
X013850Y006169D03*
X014570Y004329D03*
X012810Y003529D03*
X019290Y004809D03*
X015450Y009849D03*
X015770Y010249D03*
X015130Y010569D03*
X016650Y010889D03*
X017450Y010889D03*
X017130Y011689D03*
X016330Y011689D03*
X016330Y012089D03*
X015770Y012409D03*
X015450Y012729D03*
X014730Y014169D03*
X015130Y014889D03*
X016250Y014889D03*
X016730Y015529D03*
X017250Y015209D03*
X017690Y014569D03*
X018090Y014969D03*
X017290Y014169D03*
X016730Y014169D03*
X012970Y012569D03*
X011290Y011449D03*
X009770Y011289D03*
X007850Y012089D03*
X004330Y011209D03*
X002090Y012409D03*
X004650Y014849D03*
X004650Y015449D03*
X007530Y015609D03*
X007530Y016809D03*
X009370Y014809D03*
X012330Y015529D03*
X012650Y015209D03*
X015210Y016889D03*
X020090Y020009D03*
X020490Y020009D03*
X022970Y020329D03*
X022970Y014329D03*
X004330Y009369D03*
M02*
