G75*
G70*
%OFA0B0*%
%FSLAX24Y24*%
%IPPOS*%
%LPD*%
%AMOC8*
5,1,8,0,0,1.08239X$1,22.5*
%
%ADD10C,0.0000*%
%ADD11C,0.0160*%
%ADD12R,0.1000X0.1000*%
%ADD13OC8,0.0630*%
%ADD14C,0.0630*%
%ADD15R,0.0640X0.0640*%
%ADD16OC8,0.0640*%
%ADD17OC8,0.0520*%
%ADD18C,0.0520*%
%ADD19C,0.0594*%
%ADD20R,0.0950X0.0950*%
%ADD21C,0.0950*%
%ADD22C,0.0560*%
%ADD23R,0.0360X0.0700*%
%ADD24C,0.0238*%
%ADD25C,0.0240*%
%ADD26C,0.0320*%
%ADD27C,0.0400*%
%ADD28C,0.0560*%
D10*
X000250Y000877D02*
X000250Y024499D01*
X039620Y024499D01*
X039620Y000877D01*
X000250Y000877D01*
X030927Y002971D02*
X030929Y002999D01*
X030935Y003027D01*
X030944Y003053D01*
X030957Y003079D01*
X030973Y003102D01*
X030993Y003122D01*
X031015Y003140D01*
X031039Y003155D01*
X031065Y003166D01*
X031092Y003174D01*
X031120Y003178D01*
X031148Y003178D01*
X031176Y003174D01*
X031203Y003166D01*
X031229Y003155D01*
X031253Y003140D01*
X031275Y003122D01*
X031295Y003102D01*
X031311Y003079D01*
X031324Y003053D01*
X031333Y003027D01*
X031339Y002999D01*
X031341Y002971D01*
X031339Y002943D01*
X031333Y002915D01*
X031324Y002889D01*
X031311Y002863D01*
X031295Y002840D01*
X031275Y002820D01*
X031253Y002802D01*
X031229Y002787D01*
X031203Y002776D01*
X031176Y002768D01*
X031148Y002764D01*
X031120Y002764D01*
X031092Y002768D01*
X031065Y002776D01*
X031039Y002787D01*
X031015Y002802D01*
X030993Y002820D01*
X030973Y002840D01*
X030957Y002863D01*
X030944Y002889D01*
X030935Y002915D01*
X030929Y002943D01*
X030927Y002971D01*
X032837Y002971D02*
X032839Y002999D01*
X032845Y003027D01*
X032854Y003053D01*
X032867Y003079D01*
X032883Y003102D01*
X032903Y003122D01*
X032925Y003140D01*
X032949Y003155D01*
X032975Y003166D01*
X033002Y003174D01*
X033030Y003178D01*
X033058Y003178D01*
X033086Y003174D01*
X033113Y003166D01*
X033139Y003155D01*
X033163Y003140D01*
X033185Y003122D01*
X033205Y003102D01*
X033221Y003079D01*
X033234Y003053D01*
X033243Y003027D01*
X033249Y002999D01*
X033251Y002971D01*
X033249Y002943D01*
X033243Y002915D01*
X033234Y002889D01*
X033221Y002863D01*
X033205Y002840D01*
X033185Y002820D01*
X033163Y002802D01*
X033139Y002787D01*
X033113Y002776D01*
X033086Y002768D01*
X033058Y002764D01*
X033030Y002764D01*
X033002Y002768D01*
X032975Y002776D01*
X032949Y002787D01*
X032925Y002802D01*
X032903Y002820D01*
X032883Y002840D01*
X032867Y002863D01*
X032854Y002889D01*
X032845Y002915D01*
X032839Y002943D01*
X032837Y002971D01*
X036803Y002349D02*
X036805Y002405D01*
X036811Y002460D01*
X036821Y002514D01*
X036834Y002568D01*
X036852Y002621D01*
X036873Y002672D01*
X036897Y002722D01*
X036925Y002770D01*
X036957Y002816D01*
X036991Y002860D01*
X037029Y002901D01*
X037069Y002939D01*
X037112Y002974D01*
X037157Y003006D01*
X037205Y003035D01*
X037254Y003061D01*
X037305Y003083D01*
X037357Y003101D01*
X037411Y003115D01*
X037466Y003126D01*
X037521Y003133D01*
X037576Y003136D01*
X037632Y003135D01*
X037687Y003130D01*
X037742Y003121D01*
X037796Y003109D01*
X037849Y003092D01*
X037901Y003072D01*
X037951Y003048D01*
X037999Y003021D01*
X038046Y002991D01*
X038090Y002957D01*
X038132Y002920D01*
X038170Y002880D01*
X038207Y002838D01*
X038240Y002793D01*
X038269Y002747D01*
X038296Y002698D01*
X038318Y002647D01*
X038338Y002595D01*
X038353Y002541D01*
X038365Y002487D01*
X038373Y002432D01*
X038377Y002377D01*
X038377Y002321D01*
X038373Y002266D01*
X038365Y002211D01*
X038353Y002157D01*
X038338Y002103D01*
X038318Y002051D01*
X038296Y002000D01*
X038269Y001951D01*
X038240Y001905D01*
X038207Y001860D01*
X038170Y001818D01*
X038132Y001778D01*
X038090Y001741D01*
X038046Y001707D01*
X037999Y001677D01*
X037951Y001650D01*
X037901Y001626D01*
X037849Y001606D01*
X037796Y001589D01*
X037742Y001577D01*
X037687Y001568D01*
X037632Y001563D01*
X037576Y001562D01*
X037521Y001565D01*
X037466Y001572D01*
X037411Y001583D01*
X037357Y001597D01*
X037305Y001615D01*
X037254Y001637D01*
X037205Y001663D01*
X037157Y001692D01*
X037112Y001724D01*
X037069Y001759D01*
X037029Y001797D01*
X036991Y001838D01*
X036957Y001882D01*
X036925Y001928D01*
X036897Y001976D01*
X036873Y002026D01*
X036852Y002077D01*
X036834Y002130D01*
X036821Y002184D01*
X036811Y002238D01*
X036805Y002293D01*
X036803Y002349D01*
X036803Y022428D02*
X036805Y022484D01*
X036811Y022539D01*
X036821Y022593D01*
X036834Y022647D01*
X036852Y022700D01*
X036873Y022751D01*
X036897Y022801D01*
X036925Y022849D01*
X036957Y022895D01*
X036991Y022939D01*
X037029Y022980D01*
X037069Y023018D01*
X037112Y023053D01*
X037157Y023085D01*
X037205Y023114D01*
X037254Y023140D01*
X037305Y023162D01*
X037357Y023180D01*
X037411Y023194D01*
X037466Y023205D01*
X037521Y023212D01*
X037576Y023215D01*
X037632Y023214D01*
X037687Y023209D01*
X037742Y023200D01*
X037796Y023188D01*
X037849Y023171D01*
X037901Y023151D01*
X037951Y023127D01*
X037999Y023100D01*
X038046Y023070D01*
X038090Y023036D01*
X038132Y022999D01*
X038170Y022959D01*
X038207Y022917D01*
X038240Y022872D01*
X038269Y022826D01*
X038296Y022777D01*
X038318Y022726D01*
X038338Y022674D01*
X038353Y022620D01*
X038365Y022566D01*
X038373Y022511D01*
X038377Y022456D01*
X038377Y022400D01*
X038373Y022345D01*
X038365Y022290D01*
X038353Y022236D01*
X038338Y022182D01*
X038318Y022130D01*
X038296Y022079D01*
X038269Y022030D01*
X038240Y021984D01*
X038207Y021939D01*
X038170Y021897D01*
X038132Y021857D01*
X038090Y021820D01*
X038046Y021786D01*
X037999Y021756D01*
X037951Y021729D01*
X037901Y021705D01*
X037849Y021685D01*
X037796Y021668D01*
X037742Y021656D01*
X037687Y021647D01*
X037632Y021642D01*
X037576Y021641D01*
X037521Y021644D01*
X037466Y021651D01*
X037411Y021662D01*
X037357Y021676D01*
X037305Y021694D01*
X037254Y021716D01*
X037205Y021742D01*
X037157Y021771D01*
X037112Y021803D01*
X037069Y021838D01*
X037029Y021876D01*
X036991Y021917D01*
X036957Y021961D01*
X036925Y022007D01*
X036897Y022055D01*
X036873Y022105D01*
X036852Y022156D01*
X036834Y022209D01*
X036821Y022263D01*
X036811Y022317D01*
X036805Y022372D01*
X036803Y022428D01*
X001370Y022428D02*
X001372Y022484D01*
X001378Y022539D01*
X001388Y022593D01*
X001401Y022647D01*
X001419Y022700D01*
X001440Y022751D01*
X001464Y022801D01*
X001492Y022849D01*
X001524Y022895D01*
X001558Y022939D01*
X001596Y022980D01*
X001636Y023018D01*
X001679Y023053D01*
X001724Y023085D01*
X001772Y023114D01*
X001821Y023140D01*
X001872Y023162D01*
X001924Y023180D01*
X001978Y023194D01*
X002033Y023205D01*
X002088Y023212D01*
X002143Y023215D01*
X002199Y023214D01*
X002254Y023209D01*
X002309Y023200D01*
X002363Y023188D01*
X002416Y023171D01*
X002468Y023151D01*
X002518Y023127D01*
X002566Y023100D01*
X002613Y023070D01*
X002657Y023036D01*
X002699Y022999D01*
X002737Y022959D01*
X002774Y022917D01*
X002807Y022872D01*
X002836Y022826D01*
X002863Y022777D01*
X002885Y022726D01*
X002905Y022674D01*
X002920Y022620D01*
X002932Y022566D01*
X002940Y022511D01*
X002944Y022456D01*
X002944Y022400D01*
X002940Y022345D01*
X002932Y022290D01*
X002920Y022236D01*
X002905Y022182D01*
X002885Y022130D01*
X002863Y022079D01*
X002836Y022030D01*
X002807Y021984D01*
X002774Y021939D01*
X002737Y021897D01*
X002699Y021857D01*
X002657Y021820D01*
X002613Y021786D01*
X002566Y021756D01*
X002518Y021729D01*
X002468Y021705D01*
X002416Y021685D01*
X002363Y021668D01*
X002309Y021656D01*
X002254Y021647D01*
X002199Y021642D01*
X002143Y021641D01*
X002088Y021644D01*
X002033Y021651D01*
X001978Y021662D01*
X001924Y021676D01*
X001872Y021694D01*
X001821Y021716D01*
X001772Y021742D01*
X001724Y021771D01*
X001679Y021803D01*
X001636Y021838D01*
X001596Y021876D01*
X001558Y021917D01*
X001524Y021961D01*
X001492Y022007D01*
X001464Y022055D01*
X001440Y022105D01*
X001419Y022156D01*
X001401Y022209D01*
X001388Y022263D01*
X001378Y022317D01*
X001372Y022372D01*
X001370Y022428D01*
D11*
X000250Y024499D02*
X000250Y000877D01*
X039620Y000877D01*
X039620Y024499D01*
X000250Y024499D01*
X012070Y018769D02*
X015210Y018769D01*
X015210Y016889D01*
X016730Y015529D02*
X012330Y015529D01*
X012650Y015209D02*
X017250Y015209D01*
X017690Y014569D02*
X012970Y014569D01*
X012970Y012569D01*
X013690Y012409D02*
X013690Y011689D01*
X012170Y010169D01*
X012170Y006169D01*
X013850Y006169D01*
X014250Y006569D02*
X014250Y002729D01*
X020970Y002729D01*
X020970Y003609D01*
X019290Y004809D02*
X018010Y004809D01*
X018010Y007209D01*
X017850Y007209D01*
X017490Y007089D02*
X017490Y003529D01*
X016490Y003529D02*
X016490Y007049D01*
X016730Y007209D01*
X017370Y007209D02*
X017490Y007089D01*
X016090Y007529D02*
X023690Y007529D01*
X023690Y009129D01*
X028410Y009129D01*
X028410Y008809D01*
X028410Y007529D02*
X027690Y007529D01*
X028410Y007529D02*
X028410Y004009D01*
X029210Y004009D02*
X029210Y003609D01*
X029530Y003689D02*
X029530Y003289D01*
X029530Y003689D02*
X030010Y003689D01*
X032490Y003689D01*
X032090Y004009D02*
X029210Y004009D01*
X024330Y006969D02*
X023610Y006969D01*
X020090Y006969D01*
X019610Y006489D02*
X022810Y006489D01*
X024330Y006969D02*
X024330Y007769D01*
X023290Y007849D02*
X023290Y009689D01*
X024410Y009689D01*
X024410Y011609D01*
X025450Y011609D02*
X025450Y010169D01*
X025440Y010169D01*
X023210Y010969D02*
X023210Y010974D01*
X026650Y012009D02*
X026650Y014169D01*
X026650Y016169D01*
X026650Y018169D01*
X026650Y021129D01*
X027370Y021369D02*
X027370Y019849D01*
X027930Y019849D02*
X027930Y022009D01*
X030250Y022729D02*
X030250Y012889D01*
X031530Y012889D01*
X031530Y013529D01*
X032810Y013529D02*
X032810Y012089D01*
X030816Y012089D01*
X030816Y011165D01*
X030090Y011165D01*
X030090Y010649D01*
X031816Y011165D02*
X031816Y011769D01*
X033370Y011769D01*
X033370Y010409D01*
X032570Y010409D01*
X032170Y010409D02*
X032410Y011209D01*
X032816Y011209D01*
X032816Y011165D01*
X032170Y010409D02*
X031850Y010409D01*
X030250Y012889D02*
X028250Y012889D01*
X028250Y010969D01*
X023290Y007849D02*
X015450Y007849D01*
X014250Y006569D02*
X012490Y006569D01*
X012490Y010009D01*
X014010Y011529D01*
X014010Y012089D01*
X016330Y012089D01*
X016330Y011689D02*
X016330Y011209D01*
X016650Y010889D01*
X017450Y010889D01*
X017770Y010569D02*
X017770Y012729D01*
X017770Y013769D01*
X018970Y013769D01*
X018970Y019369D01*
X019930Y020329D01*
X022410Y020329D01*
X022410Y020249D01*
X022410Y016409D01*
X023690Y016409D01*
X022970Y016009D02*
X022970Y014329D01*
X019610Y014969D02*
X019610Y013129D01*
X018410Y013129D01*
X018410Y011689D01*
X018410Y009849D01*
X015450Y009849D01*
X015770Y010249D02*
X018090Y010249D01*
X018090Y012729D01*
X018090Y013449D01*
X019290Y013449D01*
X019290Y014329D01*
X019290Y019209D01*
X020090Y020009D01*
X020490Y020009D02*
X020490Y019929D01*
X019610Y019049D01*
X019610Y014969D01*
X018090Y014969D02*
X018090Y014169D01*
X018010Y014169D01*
X017290Y014169D01*
X016730Y014169D02*
X014730Y014169D01*
X014250Y014169D02*
X013370Y014169D01*
X013370Y011849D01*
X011850Y010329D01*
X011850Y003529D01*
X012730Y003529D01*
X012810Y003529D01*
X012730Y003529D01*
X014570Y004329D02*
X014570Y006329D01*
X016090Y006329D01*
X015130Y010569D02*
X017770Y010569D01*
X017130Y011689D02*
X016330Y011689D01*
X015770Y012409D02*
X015690Y012409D01*
X013690Y012409D01*
X015290Y012729D02*
X014250Y014169D01*
X015130Y014889D02*
X016250Y014889D01*
X015450Y012729D02*
X015290Y012729D01*
X011290Y011449D02*
X011130Y011289D01*
X009770Y011289D01*
X009370Y012089D02*
X007850Y012089D01*
X007850Y012139D01*
X009370Y012089D02*
X009370Y014809D01*
X004330Y011209D02*
X004330Y009369D01*
X022970Y016889D02*
X022970Y020329D01*
X026650Y018249D02*
X026650Y018169D01*
X031050Y018569D02*
X032410Y018569D01*
X032410Y020169D01*
X037290Y020169D01*
X036490Y019449D02*
X036490Y014169D01*
X036490Y014089D01*
X036490Y010489D01*
X033690Y013529D02*
X033690Y014249D01*
X036490Y014169D02*
X036490Y014089D01*
X036090Y018089D02*
X036090Y018889D01*
X036490Y019449D02*
X035610Y019449D01*
X032824Y021163D02*
X032810Y021163D01*
X032810Y022009D01*
X030824Y022089D02*
X030824Y021163D01*
X030810Y022089D02*
X030824Y022089D01*
D12*
X030623Y001778D03*
X033556Y001778D03*
D13*
X037650Y011189D03*
X012070Y018769D03*
D14*
X012070Y017369D03*
X037650Y012589D03*
D15*
X021950Y003569D03*
X018490Y003529D03*
X021630Y015689D03*
D16*
X021630Y014689D03*
X021630Y013689D03*
X021630Y012689D03*
X021630Y011689D03*
X021630Y010689D03*
X021630Y009689D03*
X020950Y003569D03*
X019950Y003569D03*
X017490Y003529D03*
X016490Y003529D03*
X015490Y003529D03*
D17*
X025440Y010169D03*
X027290Y002819D03*
X006990Y017959D03*
X001850Y017959D03*
D18*
X001850Y018659D03*
X006990Y018659D03*
X026140Y010169D03*
X027290Y003519D03*
D19*
X010639Y005056D03*
X009852Y002694D03*
X005128Y002694D03*
X005128Y007418D03*
X009852Y007418D03*
D20*
X002030Y007029D03*
D21*
X002030Y005060D03*
X002030Y003092D03*
D22*
X010570Y010219D03*
X010570Y012119D03*
X002930Y012779D03*
X002930Y010879D03*
D23*
X030816Y011165D03*
X031816Y011165D03*
X032816Y011165D03*
X032824Y021163D03*
X031824Y021163D03*
X030824Y021163D03*
D24*
X030810Y022089D03*
X030250Y022729D03*
X027930Y022009D03*
X027370Y021369D03*
X026650Y021129D03*
X027370Y019849D03*
X027930Y019849D03*
X031050Y018569D03*
X035610Y019449D03*
X036090Y018889D03*
X036090Y018089D03*
X037290Y020169D03*
X032810Y022009D03*
X023690Y016409D03*
X022970Y016009D03*
X022970Y016889D03*
X026650Y016169D03*
X026650Y014169D03*
X026650Y012009D03*
X025450Y011609D03*
X024410Y011609D03*
X023210Y010969D03*
X028250Y010969D03*
X030090Y010649D03*
X029770Y009689D03*
X028410Y008809D03*
X027690Y007529D03*
X027370Y006809D03*
X027690Y006169D03*
X027690Y004969D03*
X028410Y004009D03*
X029210Y003609D03*
X029530Y003289D03*
X032090Y004009D03*
X032490Y003689D03*
X035770Y003049D03*
X037610Y004409D03*
X038450Y009649D03*
X036490Y010489D03*
X032570Y010409D03*
X031850Y010409D03*
X031530Y013529D03*
X032810Y013529D03*
X033690Y013529D03*
X033690Y014249D03*
X036490Y014089D03*
X024330Y007769D03*
X023610Y006969D03*
X022810Y006489D03*
X020090Y006969D03*
X019610Y006489D03*
X017850Y007209D03*
X017370Y007209D03*
X016730Y007209D03*
X016090Y007529D03*
X015450Y007849D03*
X016090Y006329D03*
X013850Y006169D03*
X014570Y004329D03*
X012810Y003529D03*
X019290Y004809D03*
X015450Y009849D03*
X015770Y010249D03*
X015130Y010569D03*
X016650Y010889D03*
X017450Y010889D03*
X017130Y011689D03*
X016330Y011689D03*
X016330Y012089D03*
X015770Y012409D03*
X015450Y012729D03*
X014730Y014169D03*
X015130Y014889D03*
X016250Y014889D03*
X016730Y015529D03*
X017250Y015209D03*
X017690Y014569D03*
X018090Y014969D03*
X017290Y014169D03*
X016730Y014169D03*
X012970Y012569D03*
X011290Y011449D03*
X009770Y011289D03*
X007850Y012089D03*
X004330Y011209D03*
X002090Y012409D03*
X004650Y014849D03*
X004650Y015449D03*
X007530Y015609D03*
X007530Y016809D03*
X009370Y014809D03*
X012330Y015529D03*
X012650Y015209D03*
X015210Y016889D03*
X020090Y020009D03*
X020490Y020009D03*
X022970Y020329D03*
X022970Y014329D03*
X004330Y009369D03*
D25*
X002090Y012409D02*
X002090Y014849D01*
X004650Y014849D01*
X004650Y015449D02*
X004650Y017959D01*
D26*
X006990Y017959D01*
X007530Y016809D02*
X007530Y015609D01*
X004650Y017959D02*
X001850Y017959D01*
X024330Y007769D02*
X025850Y007769D01*
X025850Y006809D01*
X027370Y006809D01*
X027690Y006169D02*
X027690Y005289D01*
X027690Y004969D01*
X027690Y005289D01*
X027290Y002819D02*
X027290Y001769D01*
X030650Y001769D01*
X029770Y009689D02*
X038450Y009649D01*
D27*
X037610Y004409D02*
X035770Y004409D01*
X035770Y003049D01*
D28*
X010639Y005056D02*
X010635Y005060D01*
X002030Y005060D01*
X002030Y003092D02*
X004767Y003092D01*
X005130Y002729D01*
X004738Y007029D02*
X002030Y007029D01*
X004738Y007029D02*
X005128Y007418D01*
M02*
