G75*
G70*
%OFA0B0*%
%FSLAX24Y24*%
%IPPOS*%
%LPD*%
%AMOC8*
5,1,8,0,0,1.08239X$1,22.5*
%
%ADD10C,0.0050*%
%ADD11C,0.0040*%
%ADD12R,0.0354X0.0697*%
D10*
X029190Y011909D02*
X028940Y013409D01*
X028940Y022683D01*
X028935Y022684D02*
X030379Y022684D01*
X030379Y020401D01*
X030725Y020401D01*
X030684Y020399D02*
X034166Y020399D01*
X034166Y022685D01*
X034166Y022681D02*
X035777Y022681D01*
X035777Y022679D02*
X035773Y021051D01*
X035772Y011438D01*
X035773Y011444D02*
X035773Y010909D01*
X035440Y010909D01*
X035440Y021409D01*
X034190Y022659D01*
X035690Y022659D01*
X035690Y010909D01*
X035440Y010909D01*
X035440Y021409D01*
X034190Y022659D01*
X034229Y022620D02*
X035690Y022620D01*
X035690Y022571D02*
X034278Y022571D01*
X034326Y022523D02*
X035690Y022523D01*
X035690Y022474D02*
X034375Y022474D01*
X034423Y022426D02*
X035690Y022426D01*
X035690Y022377D02*
X034472Y022377D01*
X034520Y022329D02*
X035690Y022329D01*
X035690Y022280D02*
X034569Y022280D01*
X034617Y022232D02*
X035690Y022232D01*
X035690Y022183D02*
X034666Y022183D01*
X034714Y022135D02*
X035690Y022135D01*
X035690Y022086D02*
X034763Y022086D01*
X034811Y022038D02*
X035690Y022038D01*
X035690Y021989D02*
X034860Y021989D01*
X034908Y021941D02*
X035690Y021941D01*
X035690Y021892D02*
X034957Y021892D01*
X035005Y021844D02*
X035690Y021844D01*
X035690Y021795D02*
X035054Y021795D01*
X035102Y021747D02*
X035690Y021747D01*
X035690Y021698D02*
X035151Y021698D01*
X035199Y021650D02*
X035690Y021650D01*
X035690Y021601D02*
X035248Y021601D01*
X035296Y021553D02*
X035690Y021553D01*
X035690Y021504D02*
X035345Y021504D01*
X035393Y021456D02*
X035690Y021456D01*
X035690Y021407D02*
X035440Y021407D01*
X035440Y021359D02*
X035690Y021359D01*
X035690Y021310D02*
X035440Y021310D01*
X035440Y021262D02*
X035690Y021262D01*
X035690Y021213D02*
X035440Y021213D01*
X035440Y021165D02*
X035690Y021165D01*
X035690Y021116D02*
X035440Y021116D01*
X035440Y021068D02*
X035690Y021068D01*
X035690Y021019D02*
X035440Y021019D01*
X035440Y020971D02*
X035690Y020971D01*
X035690Y020922D02*
X035440Y020922D01*
X035440Y020874D02*
X035690Y020874D01*
X035690Y020825D02*
X035440Y020825D01*
X035440Y020777D02*
X035690Y020777D01*
X035690Y020728D02*
X035440Y020728D01*
X035440Y020680D02*
X035690Y020680D01*
X035690Y020631D02*
X035440Y020631D01*
X035440Y020583D02*
X035690Y020583D01*
X035690Y020534D02*
X035440Y020534D01*
X035440Y020486D02*
X035690Y020486D01*
X035690Y020437D02*
X035440Y020437D01*
X035440Y020389D02*
X035690Y020389D01*
X035690Y020340D02*
X035440Y020340D01*
X035440Y020292D02*
X035690Y020292D01*
X035690Y020243D02*
X035440Y020243D01*
X035440Y020195D02*
X035690Y020195D01*
X035690Y020146D02*
X035440Y020146D01*
X035440Y020098D02*
X035690Y020098D01*
X035690Y020049D02*
X035440Y020049D01*
X035440Y020001D02*
X035690Y020001D01*
X035690Y019952D02*
X035440Y019952D01*
X035440Y019904D02*
X035690Y019904D01*
X035690Y019855D02*
X035440Y019855D01*
X035440Y019807D02*
X035690Y019807D01*
X035690Y019758D02*
X035440Y019758D01*
X035440Y019710D02*
X035690Y019710D01*
X035690Y019661D02*
X035440Y019661D01*
X035440Y019613D02*
X035690Y019613D01*
X035690Y019564D02*
X035440Y019564D01*
X035440Y019516D02*
X035690Y019516D01*
X035690Y019467D02*
X035440Y019467D01*
X035440Y019419D02*
X035690Y019419D01*
X035690Y019370D02*
X035440Y019370D01*
X035440Y019322D02*
X035690Y019322D01*
X035690Y019273D02*
X035440Y019273D01*
X035440Y019225D02*
X035690Y019225D01*
X035690Y019176D02*
X035440Y019176D01*
X035440Y019128D02*
X035690Y019128D01*
X035690Y019079D02*
X035440Y019079D01*
X035440Y019031D02*
X035690Y019031D01*
X035690Y018982D02*
X035440Y018982D01*
X035440Y018934D02*
X035690Y018934D01*
X035690Y018885D02*
X035440Y018885D01*
X035440Y018837D02*
X035690Y018837D01*
X035690Y018788D02*
X035440Y018788D01*
X035440Y018740D02*
X035690Y018740D01*
X035690Y018691D02*
X035440Y018691D01*
X035440Y018643D02*
X035690Y018643D01*
X035690Y018594D02*
X035440Y018594D01*
X035440Y018546D02*
X035690Y018546D01*
X035690Y018497D02*
X035440Y018497D01*
X035440Y018449D02*
X035690Y018449D01*
X035690Y018400D02*
X035440Y018400D01*
X035440Y018352D02*
X035690Y018352D01*
X035690Y018303D02*
X035440Y018303D01*
X035440Y018255D02*
X035690Y018255D01*
X035690Y018206D02*
X035440Y018206D01*
X035440Y018158D02*
X035690Y018158D01*
X035690Y018109D02*
X035440Y018109D01*
X035440Y018061D02*
X035690Y018061D01*
X035690Y018012D02*
X035440Y018012D01*
X035440Y017964D02*
X035690Y017964D01*
X035690Y017915D02*
X035440Y017915D01*
X035440Y017867D02*
X035690Y017867D01*
X035690Y017818D02*
X035440Y017818D01*
X035440Y017770D02*
X035690Y017770D01*
X035690Y017721D02*
X035440Y017721D01*
X035440Y017673D02*
X035690Y017673D01*
X035690Y017624D02*
X035440Y017624D01*
X035440Y017576D02*
X035690Y017576D01*
X035690Y017527D02*
X035440Y017527D01*
X035440Y017479D02*
X035690Y017479D01*
X035690Y017430D02*
X035440Y017430D01*
X035440Y017382D02*
X035690Y017382D01*
X035690Y017333D02*
X035440Y017333D01*
X035440Y017285D02*
X035690Y017285D01*
X035690Y017236D02*
X035440Y017236D01*
X035440Y017188D02*
X035690Y017188D01*
X035690Y017139D02*
X035440Y017139D01*
X035440Y017091D02*
X035690Y017091D01*
X035690Y017042D02*
X035440Y017042D01*
X035440Y016994D02*
X035690Y016994D01*
X035690Y016945D02*
X035440Y016945D01*
X035440Y016897D02*
X035690Y016897D01*
X035690Y016848D02*
X035440Y016848D01*
X035440Y016800D02*
X035690Y016800D01*
X035690Y016751D02*
X035440Y016751D01*
X035440Y016703D02*
X035690Y016703D01*
X035690Y016654D02*
X035440Y016654D01*
X035440Y016606D02*
X035690Y016606D01*
X035690Y016557D02*
X035440Y016557D01*
X035440Y016509D02*
X035690Y016509D01*
X035690Y016460D02*
X035440Y016460D01*
X035440Y016412D02*
X035690Y016412D01*
X035690Y016363D02*
X035440Y016363D01*
X035440Y016315D02*
X035690Y016315D01*
X035690Y016266D02*
X035440Y016266D01*
X035440Y016218D02*
X035690Y016218D01*
X035690Y016169D02*
X035440Y016169D01*
X035440Y016121D02*
X035690Y016121D01*
X035690Y016072D02*
X035440Y016072D01*
X035440Y016024D02*
X035690Y016024D01*
X035690Y015975D02*
X035440Y015975D01*
X035440Y015927D02*
X035690Y015927D01*
X035690Y015878D02*
X035440Y015878D01*
X035440Y015830D02*
X035690Y015830D01*
X035690Y015781D02*
X035440Y015781D01*
X035440Y015733D02*
X035690Y015733D01*
X035690Y015684D02*
X035440Y015684D01*
X035440Y015636D02*
X035690Y015636D01*
X035690Y015587D02*
X035440Y015587D01*
X035440Y015539D02*
X035690Y015539D01*
X035690Y015490D02*
X035440Y015490D01*
X035440Y015442D02*
X035690Y015442D01*
X035690Y015393D02*
X035440Y015393D01*
X035440Y015345D02*
X035690Y015345D01*
X035690Y015296D02*
X035440Y015296D01*
X035440Y015248D02*
X035690Y015248D01*
X035690Y015199D02*
X035440Y015199D01*
X035440Y015151D02*
X035690Y015151D01*
X035690Y015102D02*
X035440Y015102D01*
X035440Y015054D02*
X035690Y015054D01*
X035690Y015005D02*
X035440Y015005D01*
X035440Y014957D02*
X035690Y014957D01*
X035690Y014908D02*
X035440Y014908D01*
X035440Y014860D02*
X035690Y014860D01*
X035690Y014811D02*
X035440Y014811D01*
X035440Y014763D02*
X035690Y014763D01*
X035690Y014714D02*
X035440Y014714D01*
X035440Y014666D02*
X035690Y014666D01*
X035690Y014617D02*
X035440Y014617D01*
X035440Y014569D02*
X035690Y014569D01*
X035690Y014520D02*
X035440Y014520D01*
X035440Y014472D02*
X035690Y014472D01*
X035690Y014423D02*
X035440Y014423D01*
X035440Y014375D02*
X035690Y014375D01*
X035690Y014326D02*
X035440Y014326D01*
X035440Y014278D02*
X035690Y014278D01*
X035690Y014229D02*
X035440Y014229D01*
X035440Y014181D02*
X035690Y014181D01*
X035690Y014132D02*
X035440Y014132D01*
X035440Y014084D02*
X035690Y014084D01*
X035690Y014035D02*
X035440Y014035D01*
X035440Y013987D02*
X035690Y013987D01*
X035690Y013938D02*
X035440Y013938D01*
X035440Y013890D02*
X035690Y013890D01*
X035690Y013841D02*
X035440Y013841D01*
X035440Y013793D02*
X035690Y013793D01*
X035690Y013744D02*
X035440Y013744D01*
X035440Y013696D02*
X035690Y013696D01*
X035690Y013647D02*
X035440Y013647D01*
X035440Y013599D02*
X035690Y013599D01*
X035690Y013550D02*
X035440Y013550D01*
X035440Y013502D02*
X035690Y013502D01*
X035690Y013453D02*
X035440Y013453D01*
X035440Y013405D02*
X035690Y013405D01*
X035690Y013356D02*
X035440Y013356D01*
X035440Y013308D02*
X035690Y013308D01*
X035690Y013259D02*
X035440Y013259D01*
X035440Y013211D02*
X035690Y013211D01*
X035690Y013162D02*
X035440Y013162D01*
X035440Y013114D02*
X035690Y013114D01*
X035690Y013065D02*
X035440Y013065D01*
X035440Y013017D02*
X035690Y013017D01*
X035690Y012968D02*
X035440Y012968D01*
X035440Y012920D02*
X035690Y012920D01*
X035690Y012871D02*
X035440Y012871D01*
X035440Y012823D02*
X035690Y012823D01*
X035690Y012774D02*
X035440Y012774D01*
X035440Y012726D02*
X035690Y012726D01*
X035690Y012677D02*
X035440Y012677D01*
X035440Y012629D02*
X035690Y012629D01*
X035690Y012580D02*
X035440Y012580D01*
X035440Y012532D02*
X035690Y012532D01*
X035690Y012483D02*
X035440Y012483D01*
X035440Y012435D02*
X035690Y012435D01*
X035690Y012386D02*
X035440Y012386D01*
X035440Y012338D02*
X035690Y012338D01*
X035690Y012289D02*
X035440Y012289D01*
X035440Y012241D02*
X035690Y012241D01*
X035690Y012192D02*
X035440Y012192D01*
X035440Y012144D02*
X035690Y012144D01*
X035690Y012095D02*
X035440Y012095D01*
X035440Y012047D02*
X035690Y012047D01*
X035690Y011998D02*
X035440Y011998D01*
X035440Y011950D02*
X035690Y011950D01*
X035690Y011901D02*
X035440Y011901D01*
X035440Y011853D02*
X035690Y011853D01*
X035690Y011804D02*
X035440Y011804D01*
X035440Y011756D02*
X035690Y011756D01*
X035690Y011707D02*
X035440Y011707D01*
X035440Y011659D02*
X035690Y011659D01*
X035690Y011610D02*
X035440Y011610D01*
X035440Y011562D02*
X035690Y011562D01*
X035690Y011513D02*
X035440Y011513D01*
X035440Y011465D02*
X035690Y011465D01*
X035690Y011416D02*
X035440Y011416D01*
X035440Y011368D02*
X035690Y011368D01*
X035690Y011319D02*
X035440Y011319D01*
X035440Y011271D02*
X035690Y011271D01*
X035690Y011222D02*
X035440Y011222D01*
X035440Y011174D02*
X035690Y011174D01*
X035690Y011125D02*
X035440Y011125D01*
X035440Y011077D02*
X035690Y011077D01*
X035690Y011028D02*
X035440Y011028D01*
X035440Y010980D02*
X035690Y010980D01*
X035690Y010931D02*
X035440Y010931D01*
X035440Y010909D02*
X034237Y010909D01*
X034237Y011854D01*
X034235Y011854D02*
X030716Y011855D01*
X030190Y011855D01*
X030179Y011855D01*
X030190Y011855D02*
X030190Y010909D01*
X029440Y010909D01*
X029411Y010891D02*
X029413Y011838D01*
X029228Y011838D01*
X030190Y011909D02*
X034190Y011909D01*
X034190Y012409D01*
X030190Y012409D01*
X030190Y011909D01*
X030190Y011950D02*
X034190Y011950D01*
X034190Y011998D02*
X030190Y011998D01*
X030190Y012047D02*
X034190Y012047D01*
X034190Y012095D02*
X030190Y012095D01*
X030190Y012144D02*
X034190Y012144D01*
X034190Y012192D02*
X030190Y012192D01*
X030190Y012241D02*
X034190Y012241D01*
X034190Y012289D02*
X030190Y012289D01*
X030190Y012338D02*
X034190Y012338D01*
X034190Y012386D02*
X030190Y012386D01*
X030698Y013440D02*
X029198Y013430D01*
X029190Y019677D01*
X035267Y019677D01*
X035267Y013440D01*
X030698Y013440D01*
X031812Y018647D02*
X032190Y019409D01*
X031316Y019401D01*
X031812Y018647D01*
X031834Y018691D02*
X031783Y018691D01*
X031751Y018740D02*
X031858Y018740D01*
X031882Y018788D02*
X031719Y018788D01*
X031687Y018837D02*
X031906Y018837D01*
X031930Y018885D02*
X031655Y018885D01*
X031624Y018934D02*
X031954Y018934D01*
X031978Y018982D02*
X031592Y018982D01*
X031560Y019031D02*
X032002Y019031D01*
X032026Y019079D02*
X031528Y019079D01*
X031496Y019128D02*
X032050Y019128D01*
X032074Y019176D02*
X031464Y019176D01*
X031432Y019225D02*
X032099Y019225D01*
X032123Y019273D02*
X031400Y019273D01*
X031368Y019322D02*
X032147Y019322D01*
X032171Y019370D02*
X031336Y019370D01*
D11*
X031185Y019139D02*
X031031Y019139D01*
X030955Y019063D01*
X030955Y018756D01*
X031031Y018679D01*
X031185Y018679D01*
X031262Y018756D01*
X031262Y019063D01*
X031185Y019139D01*
X030801Y019139D02*
X030571Y019139D01*
X030494Y019063D01*
X030494Y018909D01*
X030571Y018832D01*
X030801Y018832D01*
X030801Y018679D02*
X030801Y019139D01*
X030341Y019139D02*
X030341Y018679D01*
X030034Y018679D01*
X029880Y018679D02*
X029880Y019139D01*
X029573Y018679D01*
X029573Y019139D01*
X030034Y019139D02*
X030341Y019139D01*
X030341Y018909D02*
X030187Y018909D01*
X029920Y020179D02*
X029460Y020179D01*
X029460Y020409D01*
X029537Y020486D01*
X029844Y020486D01*
X029920Y020409D01*
X029920Y020179D01*
X029690Y020639D02*
X029767Y020716D01*
X029767Y020870D01*
X029690Y020946D01*
X029613Y020946D01*
X029613Y020639D01*
X029537Y020639D02*
X029690Y020639D01*
X029537Y020639D02*
X029460Y020716D01*
X029460Y020870D01*
X029537Y021100D02*
X029460Y021176D01*
X029460Y021330D01*
X029537Y021407D01*
X029613Y021407D01*
X029690Y021330D01*
X029690Y021176D01*
X029767Y021100D01*
X029844Y021100D01*
X029920Y021176D01*
X029920Y021330D01*
X029844Y021407D01*
X029920Y021560D02*
X029920Y021714D01*
X029920Y021637D02*
X029460Y021637D01*
X029460Y021560D02*
X029460Y021714D01*
X029537Y021867D02*
X029460Y021944D01*
X029460Y022097D01*
X029537Y022174D01*
X029690Y022174D01*
X029690Y022020D01*
X029537Y021867D02*
X029844Y021867D01*
X029920Y021944D01*
X029920Y022097D01*
X029844Y022174D01*
X032323Y019139D02*
X032323Y018679D01*
X032630Y019139D01*
X032630Y018679D01*
X032784Y018679D02*
X033091Y018679D01*
X033091Y019139D01*
X032784Y019139D01*
X032937Y018909D02*
X033091Y018909D01*
X033244Y018909D02*
X033321Y018832D01*
X033551Y018832D01*
X033551Y018679D02*
X033551Y019139D01*
X033321Y019139D01*
X033244Y019063D01*
X033244Y018909D01*
X033705Y018756D02*
X033705Y019063D01*
X033781Y019139D01*
X033935Y019139D01*
X034012Y019063D01*
X034012Y018756D01*
X033935Y018679D01*
X033781Y018679D01*
X033705Y018756D01*
X034537Y017055D02*
X034460Y016978D01*
X034460Y016825D01*
X034537Y016748D01*
X034844Y016748D01*
X034920Y016825D01*
X034920Y016978D01*
X034844Y017055D01*
X034690Y017055D01*
X034613Y016978D01*
X034767Y016978D01*
X034767Y016825D01*
X034613Y016825D01*
X034613Y016978D01*
X034460Y016595D02*
X034690Y016365D01*
X034613Y016288D02*
X034920Y016595D01*
X034920Y016288D02*
X034460Y016288D01*
X034537Y016134D02*
X034460Y016058D01*
X034460Y015904D01*
X034537Y015827D01*
X034844Y015827D01*
X034920Y015904D01*
X034920Y016058D01*
X034844Y016134D01*
X034844Y015674D02*
X034537Y015674D01*
X034460Y015597D01*
X034460Y015444D01*
X034537Y015367D01*
X034844Y015367D01*
X034920Y015444D01*
X034920Y015597D01*
X034844Y015674D01*
X034460Y015214D02*
X034460Y014907D01*
X034920Y014907D01*
X034920Y014753D02*
X034460Y014753D01*
X034460Y014446D02*
X034920Y014446D01*
X034767Y014600D01*
X034920Y014753D01*
X034920Y014293D02*
X034920Y014139D01*
X034920Y014216D02*
X034460Y014216D01*
X034460Y014139D02*
X034460Y014293D01*
X034537Y013986D02*
X034460Y013909D01*
X034460Y013756D01*
X034537Y013679D01*
X034690Y013756D02*
X034690Y013909D01*
X034613Y013986D01*
X034537Y013986D01*
X034690Y013756D02*
X034767Y013679D01*
X034844Y013679D01*
X034920Y013756D01*
X034920Y013909D01*
X034844Y013986D01*
X032240Y016272D02*
X032240Y016426D01*
X032240Y016349D02*
X031857Y016349D01*
X031780Y016272D01*
X031780Y016196D01*
X031857Y016119D01*
X031780Y016579D02*
X031780Y016886D01*
X031780Y016733D02*
X032240Y016733D01*
X032087Y016579D01*
D12*
X031812Y017917D03*
X030812Y017917D03*
X032812Y017917D03*
X032812Y014667D03*
X031812Y014667D03*
X030812Y014667D03*
M02*
