%
M48
M72
T01C0.0118
T02C0.0280
T03C0.0320
T04C0.0354
T05C0.0400
T06C0.0413
T07C0.0472
T08C0.0512
T09C0.1575
%
T01
X12810Y3529
X14570Y4329
X13850Y6169
X16090Y6329
X16730Y7209
X17370Y7209
X17850Y7209
X16090Y7529
X15450Y7849
X15450Y9849
X15770Y10249
X15130Y10569
X16650Y10889
X17450Y10889
X17130Y11689
X16330Y11689
X16330Y12089
X15770Y12409
X15450Y12729
X14730Y14169
X15130Y14889
X16250Y14889
X16730Y15529
X17250Y15209
X17690Y14569
X18090Y14969
X17290Y14169
X16730Y14169
X12970Y12569
X11290Y11449
X9770Y11289
X7850Y12089
X4330Y11209
X2090Y12409
X4650Y14849
X4650Y15449
X7530Y15609
X7530Y16809
X9370Y14809
X12330Y15529
X12650Y15209
X15210Y16889
X20090Y20009
X20490Y20009
X22970Y20329
X26650Y21129
X27370Y21369
X27930Y22009
X30250Y22729
X30810Y22089
X32810Y22009
X35610Y19449
X36090Y18889
X36090Y18089
X37290Y20169
X31050Y18569
X27930Y19849
X27370Y19849
X22970Y16889
X23690Y16409
X22970Y16009
X22970Y14329
X26650Y14169
X26650Y16169
X31530Y13529
X32810Y13529
X33690Y13529
X33690Y14249
X36490Y14089
X36490Y10489
X38450Y9649
X32570Y10409
X31850Y10409
X30090Y10649
X29770Y9689
X28410Y8809
X27690Y7529
X27370Y6809
X27690Y6169
X27690Y4969
X28410Y4009
X29210Y3609
X29530Y3289
X32090Y4009
X32490Y3689
X35770Y3049
X37610Y4409
X28250Y10969
X26650Y12009
X25450Y11609
X24410Y11609
X23210Y10969
X24330Y7769
X23610Y6969
X22810Y6489
X20090Y6969
X19610Y6489
X19290Y4809
X4330Y9369
T02
X1850Y17959
X1850Y18659
X6990Y18659
X6990Y17959
X25440Y10169
X26140Y10169
X27290Y3519
X27290Y2819
T03
X37650Y11189
X37650Y12589
X12070Y17369
X12070Y18769
X2930Y12779
X2930Y10879
X10570Y10219
X10570Y12119
T04
X9852Y7418
X10639Y5056
X9852Y2694
X5128Y2694
X5128Y7418
T05
X15490Y3529
X16490Y3529
X17490Y3529
X18490Y3529
X19950Y3569
X20950Y3569
X21950Y3569
X21630Y9689
X21630Y10689
X21630Y11689
X21630Y12689
X21630Y13689
X21630Y14689
X21630Y15689
T06
X31134Y2971
X33044Y2971
T07
X33556Y1778
X30623Y1778
T08
X2030Y3092
X2030Y5060
X2030Y7029
T09
X2157Y22428
X37590Y22428
X37590Y2349
M30
