G75*
G70*
%OFA0B0*%
%FSLAX24Y24*%
%IPPOS*%
%LPD*%
%AMOC8*
5,1,8,0,0,1.08239X$1,22.5*
%
%ADD10C,0.0000*%
%ADD11C,0.0160*%
%ADD12R,0.0157X0.0689*%
%ADD13R,0.1000X0.1000*%
%ADD14R,0.0256X0.0787*%
%ADD15R,0.0787X0.0256*%
%ADD16OC8,0.0630*%
%ADD17C,0.0630*%
%ADD18R,0.0640X0.0640*%
%ADD19OC8,0.0640*%
%ADD20R,0.0480X0.0880*%
%ADD21R,0.1417X0.0866*%
%ADD22OC8,0.0520*%
%ADD23C,0.0520*%
%ADD24C,0.0594*%
%ADD25R,0.0551X0.0394*%
%ADD26R,0.0710X0.0630*%
%ADD27R,0.0472X0.0591*%
%ADD28R,0.0950X0.0950*%
%ADD29C,0.0950*%
%ADD30R,0.4098X0.4252*%
%ADD31R,0.0850X0.0420*%
%ADD32R,0.0630X0.0709*%
%ADD33R,0.0709X0.0630*%
%ADD34R,0.0630X0.0710*%
%ADD35R,0.0591X0.0197*%
%ADD36R,0.0197X0.0591*%
%ADD37R,0.0600X0.0250*%
%ADD38R,0.0984X0.0189*%
%ADD39R,0.0189X0.0984*%
%ADD40C,0.0560*%
%ADD41R,0.1250X0.1500*%
%ADD42R,0.0354X0.0315*%
%ADD43R,0.0394X0.0551*%
%ADD44R,0.0413X0.0866*%
%ADD45R,0.0394X0.0315*%
%ADD46R,0.0472X0.0551*%
%ADD47C,0.0320*%
%ADD48C,0.0240*%
%ADD49C,0.0238*%
%ADD50C,0.0400*%
%ADD51C,0.0500*%
D10*
X000250Y000877D02*
X000250Y024499D01*
X039620Y024499D01*
X039620Y000877D01*
X000250Y000877D01*
X030927Y002971D02*
X030929Y002999D01*
X030935Y003027D01*
X030944Y003053D01*
X030957Y003079D01*
X030973Y003102D01*
X030993Y003122D01*
X031015Y003140D01*
X031039Y003155D01*
X031065Y003166D01*
X031092Y003174D01*
X031120Y003178D01*
X031148Y003178D01*
X031176Y003174D01*
X031203Y003166D01*
X031229Y003155D01*
X031253Y003140D01*
X031275Y003122D01*
X031295Y003102D01*
X031311Y003079D01*
X031324Y003053D01*
X031333Y003027D01*
X031339Y002999D01*
X031341Y002971D01*
X031339Y002943D01*
X031333Y002915D01*
X031324Y002889D01*
X031311Y002863D01*
X031295Y002840D01*
X031275Y002820D01*
X031253Y002802D01*
X031229Y002787D01*
X031203Y002776D01*
X031176Y002768D01*
X031148Y002764D01*
X031120Y002764D01*
X031092Y002768D01*
X031065Y002776D01*
X031039Y002787D01*
X031015Y002802D01*
X030993Y002820D01*
X030973Y002840D01*
X030957Y002863D01*
X030944Y002889D01*
X030935Y002915D01*
X030929Y002943D01*
X030927Y002971D01*
X032837Y002971D02*
X032839Y002999D01*
X032845Y003027D01*
X032854Y003053D01*
X032867Y003079D01*
X032883Y003102D01*
X032903Y003122D01*
X032925Y003140D01*
X032949Y003155D01*
X032975Y003166D01*
X033002Y003174D01*
X033030Y003178D01*
X033058Y003178D01*
X033086Y003174D01*
X033113Y003166D01*
X033139Y003155D01*
X033163Y003140D01*
X033185Y003122D01*
X033205Y003102D01*
X033221Y003079D01*
X033234Y003053D01*
X033243Y003027D01*
X033249Y002999D01*
X033251Y002971D01*
X033249Y002943D01*
X033243Y002915D01*
X033234Y002889D01*
X033221Y002863D01*
X033205Y002840D01*
X033185Y002820D01*
X033163Y002802D01*
X033139Y002787D01*
X033113Y002776D01*
X033086Y002768D01*
X033058Y002764D01*
X033030Y002764D01*
X033002Y002768D01*
X032975Y002776D01*
X032949Y002787D01*
X032925Y002802D01*
X032903Y002820D01*
X032883Y002840D01*
X032867Y002863D01*
X032854Y002889D01*
X032845Y002915D01*
X032839Y002943D01*
X032837Y002971D01*
X036803Y002349D02*
X036805Y002405D01*
X036811Y002460D01*
X036821Y002514D01*
X036834Y002568D01*
X036852Y002621D01*
X036873Y002672D01*
X036897Y002722D01*
X036925Y002770D01*
X036957Y002816D01*
X036991Y002860D01*
X037029Y002901D01*
X037069Y002939D01*
X037112Y002974D01*
X037157Y003006D01*
X037205Y003035D01*
X037254Y003061D01*
X037305Y003083D01*
X037357Y003101D01*
X037411Y003115D01*
X037466Y003126D01*
X037521Y003133D01*
X037576Y003136D01*
X037632Y003135D01*
X037687Y003130D01*
X037742Y003121D01*
X037796Y003109D01*
X037849Y003092D01*
X037901Y003072D01*
X037951Y003048D01*
X037999Y003021D01*
X038046Y002991D01*
X038090Y002957D01*
X038132Y002920D01*
X038170Y002880D01*
X038207Y002838D01*
X038240Y002793D01*
X038269Y002747D01*
X038296Y002698D01*
X038318Y002647D01*
X038338Y002595D01*
X038353Y002541D01*
X038365Y002487D01*
X038373Y002432D01*
X038377Y002377D01*
X038377Y002321D01*
X038373Y002266D01*
X038365Y002211D01*
X038353Y002157D01*
X038338Y002103D01*
X038318Y002051D01*
X038296Y002000D01*
X038269Y001951D01*
X038240Y001905D01*
X038207Y001860D01*
X038170Y001818D01*
X038132Y001778D01*
X038090Y001741D01*
X038046Y001707D01*
X037999Y001677D01*
X037951Y001650D01*
X037901Y001626D01*
X037849Y001606D01*
X037796Y001589D01*
X037742Y001577D01*
X037687Y001568D01*
X037632Y001563D01*
X037576Y001562D01*
X037521Y001565D01*
X037466Y001572D01*
X037411Y001583D01*
X037357Y001597D01*
X037305Y001615D01*
X037254Y001637D01*
X037205Y001663D01*
X037157Y001692D01*
X037112Y001724D01*
X037069Y001759D01*
X037029Y001797D01*
X036991Y001838D01*
X036957Y001882D01*
X036925Y001928D01*
X036897Y001976D01*
X036873Y002026D01*
X036852Y002077D01*
X036834Y002130D01*
X036821Y002184D01*
X036811Y002238D01*
X036805Y002293D01*
X036803Y002349D01*
X036803Y022428D02*
X036805Y022484D01*
X036811Y022539D01*
X036821Y022593D01*
X036834Y022647D01*
X036852Y022700D01*
X036873Y022751D01*
X036897Y022801D01*
X036925Y022849D01*
X036957Y022895D01*
X036991Y022939D01*
X037029Y022980D01*
X037069Y023018D01*
X037112Y023053D01*
X037157Y023085D01*
X037205Y023114D01*
X037254Y023140D01*
X037305Y023162D01*
X037357Y023180D01*
X037411Y023194D01*
X037466Y023205D01*
X037521Y023212D01*
X037576Y023215D01*
X037632Y023214D01*
X037687Y023209D01*
X037742Y023200D01*
X037796Y023188D01*
X037849Y023171D01*
X037901Y023151D01*
X037951Y023127D01*
X037999Y023100D01*
X038046Y023070D01*
X038090Y023036D01*
X038132Y022999D01*
X038170Y022959D01*
X038207Y022917D01*
X038240Y022872D01*
X038269Y022826D01*
X038296Y022777D01*
X038318Y022726D01*
X038338Y022674D01*
X038353Y022620D01*
X038365Y022566D01*
X038373Y022511D01*
X038377Y022456D01*
X038377Y022400D01*
X038373Y022345D01*
X038365Y022290D01*
X038353Y022236D01*
X038338Y022182D01*
X038318Y022130D01*
X038296Y022079D01*
X038269Y022030D01*
X038240Y021984D01*
X038207Y021939D01*
X038170Y021897D01*
X038132Y021857D01*
X038090Y021820D01*
X038046Y021786D01*
X037999Y021756D01*
X037951Y021729D01*
X037901Y021705D01*
X037849Y021685D01*
X037796Y021668D01*
X037742Y021656D01*
X037687Y021647D01*
X037632Y021642D01*
X037576Y021641D01*
X037521Y021644D01*
X037466Y021651D01*
X037411Y021662D01*
X037357Y021676D01*
X037305Y021694D01*
X037254Y021716D01*
X037205Y021742D01*
X037157Y021771D01*
X037112Y021803D01*
X037069Y021838D01*
X037029Y021876D01*
X036991Y021917D01*
X036957Y021961D01*
X036925Y022007D01*
X036897Y022055D01*
X036873Y022105D01*
X036852Y022156D01*
X036834Y022209D01*
X036821Y022263D01*
X036811Y022317D01*
X036805Y022372D01*
X036803Y022428D01*
X001370Y022428D02*
X001372Y022484D01*
X001378Y022539D01*
X001388Y022593D01*
X001401Y022647D01*
X001419Y022700D01*
X001440Y022751D01*
X001464Y022801D01*
X001492Y022849D01*
X001524Y022895D01*
X001558Y022939D01*
X001596Y022980D01*
X001636Y023018D01*
X001679Y023053D01*
X001724Y023085D01*
X001772Y023114D01*
X001821Y023140D01*
X001872Y023162D01*
X001924Y023180D01*
X001978Y023194D01*
X002033Y023205D01*
X002088Y023212D01*
X002143Y023215D01*
X002199Y023214D01*
X002254Y023209D01*
X002309Y023200D01*
X002363Y023188D01*
X002416Y023171D01*
X002468Y023151D01*
X002518Y023127D01*
X002566Y023100D01*
X002613Y023070D01*
X002657Y023036D01*
X002699Y022999D01*
X002737Y022959D01*
X002774Y022917D01*
X002807Y022872D01*
X002836Y022826D01*
X002863Y022777D01*
X002885Y022726D01*
X002905Y022674D01*
X002920Y022620D01*
X002932Y022566D01*
X002940Y022511D01*
X002944Y022456D01*
X002944Y022400D01*
X002940Y022345D01*
X002932Y022290D01*
X002920Y022236D01*
X002905Y022182D01*
X002885Y022130D01*
X002863Y022079D01*
X002836Y022030D01*
X002807Y021984D01*
X002774Y021939D01*
X002737Y021897D01*
X002699Y021857D01*
X002657Y021820D01*
X002613Y021786D01*
X002566Y021756D01*
X002518Y021729D01*
X002468Y021705D01*
X002416Y021685D01*
X002363Y021668D01*
X002309Y021656D01*
X002254Y021647D01*
X002199Y021642D01*
X002143Y021641D01*
X002088Y021644D01*
X002033Y021651D01*
X001978Y021662D01*
X001924Y021676D01*
X001872Y021694D01*
X001821Y021716D01*
X001772Y021742D01*
X001724Y021771D01*
X001679Y021803D01*
X001636Y021838D01*
X001596Y021876D01*
X001558Y021917D01*
X001524Y021961D01*
X001492Y022007D01*
X001464Y022055D01*
X001440Y022105D01*
X001419Y022156D01*
X001401Y022209D01*
X001388Y022263D01*
X001378Y022317D01*
X001372Y022372D01*
X001370Y022428D01*
D11*
X000250Y024499D02*
X000250Y000877D01*
X039620Y000877D01*
X039620Y024499D01*
X000250Y024499D01*
X012330Y015529D02*
X012330Y012249D01*
X014490Y012249D01*
X014410Y012569D02*
X012970Y012569D01*
X012650Y012864D02*
X014447Y012864D01*
X015130Y013529D02*
X015130Y014889D01*
X015450Y014889D02*
X015450Y013593D01*
X015470Y013572D01*
X015785Y013572D02*
X015785Y012729D01*
X015450Y012729D01*
X015770Y012409D02*
X016100Y012409D01*
X016100Y013572D01*
X016415Y013572D02*
X016415Y012089D01*
X016330Y012089D01*
X016330Y011689D02*
X016250Y011609D01*
X014490Y011609D01*
X011690Y011609D01*
X011690Y013289D01*
X009850Y013289D01*
X009850Y013969D01*
X007850Y013969D01*
X007850Y013849D01*
X006570Y013139D02*
X006570Y008969D01*
X011850Y008969D01*
X011850Y010329D01*
X014447Y010329D01*
X014447Y010344D01*
X014447Y010029D02*
X014447Y010009D01*
X012170Y010009D01*
X012170Y008649D01*
X006250Y008649D01*
X006250Y012639D01*
X005049Y012639D01*
X005049Y013139D02*
X006570Y013139D01*
X007171Y012139D02*
X007850Y012139D01*
X007850Y012089D01*
X008850Y011369D02*
X008850Y011289D01*
X009770Y011289D01*
X010570Y010974D02*
X010570Y012119D01*
X011290Y011449D02*
X011450Y011289D01*
X014447Y011289D01*
X016650Y011289D01*
X016810Y011289D01*
X019013Y011289D01*
X019530Y011289D01*
X019930Y010889D01*
X019930Y010569D01*
X019930Y007869D01*
X020919Y007869D01*
X020250Y008489D02*
X022090Y008489D01*
X022090Y007869D01*
X022021Y007869D01*
X022021Y006829D02*
X022550Y006829D01*
X022810Y006489D01*
X023210Y006889D01*
X023210Y010969D01*
X024410Y011609D02*
X024410Y012269D01*
X024370Y012269D01*
X025450Y011609D02*
X026890Y011609D01*
X026890Y009798D01*
X027610Y009798D01*
X028970Y009798D01*
X028970Y010649D02*
X030090Y010649D01*
X030459Y010298D02*
X031930Y011769D01*
X031930Y012809D01*
X031530Y012809D02*
X031530Y013529D01*
X030970Y014249D02*
X030970Y015849D01*
X030650Y015849D01*
X030650Y018249D01*
X030650Y018489D01*
X029690Y019449D01*
X027930Y019449D01*
X027930Y019849D01*
X027370Y019849D02*
X027370Y018569D01*
X026064Y018569D01*
X026064Y018616D01*
X025316Y018616D02*
X025316Y018569D01*
X024330Y018569D01*
X025690Y019482D02*
X025690Y020249D01*
X027290Y020249D01*
X031933Y020249D01*
X031933Y019421D01*
X032799Y019421D02*
X032799Y020649D01*
X029130Y020649D01*
X029130Y021369D01*
X029690Y021369D01*
X029690Y022129D01*
X029651Y022129D01*
X030810Y022129D01*
X030810Y022089D01*
X030250Y022729D02*
X030250Y022749D01*
X031690Y022749D01*
X032810Y022749D02*
X032810Y022009D01*
X032810Y022009D01*
X033232Y021369D02*
X033232Y019421D01*
X033232Y018476D01*
X033690Y018476D01*
X033690Y015849D01*
X034098Y015849D01*
X034098Y015878D01*
X034098Y013929D01*
X033232Y013929D01*
X030634Y013929D01*
X030634Y012767D01*
X030634Y011609D01*
X026890Y011609D01*
X026650Y012009D02*
X026650Y012249D01*
X026650Y012415D01*
X026224Y012415D01*
X026650Y012309D02*
X026650Y012249D01*
X026650Y012309D02*
X027350Y012309D01*
X027350Y013429D02*
X027350Y013449D01*
X028570Y013449D01*
X028570Y015878D01*
X029413Y015878D01*
X029413Y015445D02*
X030634Y015445D01*
X030634Y013929D01*
X030970Y014249D02*
X033690Y014249D01*
X034098Y013929D02*
X034098Y012767D01*
X034098Y011849D01*
X036010Y011849D01*
X036010Y011209D01*
X037650Y011209D01*
X037650Y011189D01*
X036490Y010489D02*
X038810Y010489D01*
X038810Y006649D01*
X038810Y003769D01*
X036970Y003769D01*
X035050Y003769D01*
X035050Y004409D01*
X032490Y003689D02*
X032089Y003288D01*
X032089Y002890D01*
X031833Y002890D02*
X031833Y004009D01*
X032090Y004009D01*
X031577Y004009D02*
X028410Y004009D01*
X029210Y003609D02*
X029210Y001929D01*
X007930Y001929D01*
X007930Y008329D01*
X005930Y008329D01*
X005930Y011129D01*
X005049Y011129D01*
X005049Y011139D01*
X005049Y011639D02*
X004330Y011639D01*
X004330Y011209D01*
X004330Y009369D02*
X004330Y008009D01*
X007610Y008009D01*
X007610Y001609D01*
X009450Y001609D01*
X029530Y001609D01*
X029530Y003289D01*
X031577Y002890D02*
X031577Y004009D01*
X032601Y002890D02*
X032601Y001778D01*
X032570Y001778D01*
X028410Y008169D02*
X028410Y008809D01*
X030459Y009689D02*
X030459Y010298D01*
X031570Y010409D02*
X031578Y009689D01*
X032530Y009669D02*
X032530Y010409D01*
X032570Y010409D01*
X031850Y010409D02*
X031570Y010409D01*
X032366Y011733D02*
X033930Y010169D01*
X033930Y009709D01*
X033650Y009669D01*
X035741Y009649D02*
X036010Y009689D01*
X036010Y011209D01*
X036090Y012589D02*
X036090Y016329D01*
X035319Y016329D01*
X035319Y016311D01*
X035319Y015878D02*
X034098Y015878D01*
X035319Y017177D02*
X036410Y017177D01*
X036410Y017609D01*
X035319Y017609D01*
X035319Y017610D01*
X035319Y018043D02*
X035290Y018043D01*
X035290Y018089D01*
X036090Y018089D01*
X036410Y017989D02*
X037290Y017989D01*
X036410Y017989D02*
X036410Y018476D01*
X036410Y017609D01*
X036410Y018476D02*
X035319Y018476D01*
X036090Y018889D02*
X036090Y019209D01*
X036090Y023129D01*
X034990Y023129D01*
X034990Y022769D01*
X034449Y022169D02*
X034490Y022089D01*
X034490Y021369D01*
X033232Y021369D01*
X034490Y021369D02*
X035531Y021369D01*
X035531Y022169D01*
X034090Y020169D02*
X033665Y020169D01*
X033665Y019421D01*
X034090Y019421D02*
X034098Y019421D01*
X035610Y019421D01*
X035610Y019449D01*
X034090Y019421D02*
X034090Y020169D01*
X032799Y019421D02*
X032799Y018476D01*
X033232Y018476D01*
X031067Y018569D02*
X031050Y018569D01*
X031067Y018569D02*
X031067Y019421D01*
X029413Y018476D02*
X027930Y018476D01*
X027930Y017609D01*
X027310Y017609D01*
X027310Y017589D01*
X028250Y018043D02*
X028250Y015529D01*
X027330Y015529D01*
X027330Y015509D01*
X026650Y016169D02*
X026650Y016655D01*
X026184Y016655D01*
X026650Y016469D02*
X027310Y016469D01*
X026650Y016469D02*
X026650Y016169D01*
X024330Y016429D02*
X023710Y016429D01*
X023690Y016409D01*
X022970Y016009D02*
X022970Y016889D01*
X021630Y015689D02*
X020090Y015689D01*
X019370Y014969D01*
X019210Y014969D01*
X018090Y014969D01*
X018250Y014569D02*
X019290Y014569D01*
X020010Y014569D01*
X020170Y014729D01*
X021590Y014729D01*
X021630Y014689D01*
X022970Y014349D02*
X024350Y014349D01*
X022970Y014329D02*
X022970Y014349D01*
X021610Y013689D02*
X019930Y013689D01*
X019450Y014169D01*
X018250Y014169D01*
X017990Y013909D01*
X017990Y013572D01*
X018305Y013572D02*
X018305Y013769D01*
X018970Y013769D01*
X019290Y013769D01*
X020330Y012729D01*
X021690Y012729D01*
X021610Y011689D02*
X020810Y011689D01*
X019635Y012864D01*
X019013Y012864D01*
X019013Y012549D02*
X019470Y012549D01*
X021290Y010729D01*
X021610Y010729D01*
X020570Y011049D02*
X020570Y009689D01*
X021630Y009689D01*
X020570Y011049D02*
X019385Y012234D01*
X019013Y012234D01*
X019013Y011604D02*
X019615Y011604D01*
X020250Y010969D01*
X020250Y008489D01*
X020090Y006969D02*
X020230Y006829D01*
X020919Y006829D01*
X019610Y006489D02*
X018530Y006489D01*
X018530Y005949D01*
X019610Y006489D02*
X019610Y010734D01*
X019370Y010974D01*
X019013Y010974D01*
X017535Y010974D01*
X017450Y010889D01*
X017045Y011289D02*
X016810Y011289D01*
X016730Y011289D02*
X016730Y013609D01*
X016730Y014169D01*
X017290Y014169D02*
X017360Y014099D01*
X017360Y013572D01*
X017675Y013572D02*
X017675Y013994D01*
X018250Y014569D01*
X017751Y014569D02*
X017690Y014569D01*
X017751Y014569D02*
X017751Y016149D01*
X017259Y016149D02*
X017259Y015209D01*
X017250Y015209D01*
X016730Y015529D02*
X016730Y016149D01*
X016747Y016149D01*
X016255Y016149D02*
X016255Y015294D01*
X016250Y014889D01*
X015763Y015202D02*
X015450Y014889D01*
X015763Y015202D02*
X015763Y016149D01*
X015251Y016149D02*
X015251Y015369D01*
X014730Y015369D01*
X014730Y014169D01*
X017045Y013572D02*
X017045Y011774D01*
X017130Y011689D01*
X017045Y011289D02*
X017045Y009005D01*
X017050Y009005D01*
X017050Y006729D01*
X015330Y006729D01*
X016084Y006323D02*
X016090Y006329D01*
X016084Y006323D02*
X016084Y005802D01*
X016730Y007209D02*
X016730Y009005D01*
X016730Y010809D01*
X016650Y010889D01*
X016650Y011289D02*
X016730Y011289D01*
X015770Y010249D02*
X015770Y009021D01*
X015785Y009005D01*
X015470Y009005D02*
X015470Y007849D01*
X015450Y007849D01*
X016090Y007529D02*
X016100Y007529D01*
X016100Y009005D01*
X015155Y009005D02*
X015155Y009554D01*
X015450Y009849D01*
X015130Y010009D02*
X015130Y010569D01*
X015130Y010009D02*
X014835Y009714D01*
X014447Y009714D01*
X014447Y010659D02*
X010570Y010659D01*
X010570Y010219D01*
X010570Y010974D02*
X014447Y010974D01*
X014447Y011919D02*
X012010Y011919D01*
X012010Y013929D01*
X011190Y013929D01*
X011190Y013969D01*
X011190Y014789D01*
X011210Y014809D01*
X010079Y014869D02*
X009370Y014869D01*
X009370Y014809D01*
X009850Y014009D02*
X009850Y013969D01*
X009850Y014009D01*
X009850Y013969D02*
X010070Y013969D01*
X012650Y012864D02*
X012650Y015209D01*
X015210Y016089D02*
X015210Y016889D01*
X018305Y013769D02*
X018305Y013572D01*
X017675Y009005D02*
X017675Y007384D01*
X017850Y007209D01*
X017370Y007209D02*
X017370Y008995D01*
X017360Y009005D01*
X013850Y006169D02*
X013850Y005449D01*
X013810Y004329D02*
X013810Y004309D01*
X013810Y004329D02*
X014570Y004329D01*
X012790Y004289D02*
X012790Y003549D01*
X012810Y003529D01*
X018530Y004809D02*
X019290Y004809D01*
X028970Y010649D02*
X028970Y010900D01*
X028250Y010900D02*
X028250Y010969D01*
X028250Y010900D02*
X027610Y010900D01*
X032366Y011733D02*
X032366Y012767D01*
X032799Y012767D02*
X032810Y012767D01*
X032810Y013529D01*
X033232Y013929D02*
X033232Y012767D01*
X033665Y012767D02*
X033690Y012792D01*
X033690Y013529D01*
X036090Y012589D02*
X037650Y012589D01*
X029413Y018043D02*
X028250Y018043D01*
X024330Y019689D02*
X024330Y020729D01*
X020090Y020729D01*
X020090Y020009D01*
X020490Y020009D02*
X020490Y020329D01*
X022970Y020329D01*
X027370Y021369D02*
X028730Y021369D01*
X029130Y021369D01*
X028730Y021369D02*
X028569Y021369D01*
X028569Y022129D01*
X027930Y022009D02*
X027930Y023049D01*
X029110Y023049D01*
X029110Y022729D01*
X037290Y020169D02*
X037290Y018969D01*
X027330Y014389D02*
X026650Y014389D01*
X026650Y014169D01*
X026650Y014575D01*
X026204Y014575D01*
D12*
X031577Y002890D03*
X031833Y002890D03*
X032089Y002890D03*
X032345Y002890D03*
X032601Y002890D03*
D13*
X033556Y001778D03*
X030623Y001778D03*
D14*
X018244Y016149D03*
X017751Y016149D03*
X017259Y016149D03*
X016747Y016149D03*
X016255Y016149D03*
X015763Y016149D03*
X015251Y016149D03*
X014720Y016149D03*
D15*
X018799Y020673D03*
D16*
X012070Y018769D03*
X037650Y011189D03*
D17*
X037650Y012589D03*
X012070Y017369D03*
D18*
X021630Y015689D03*
X021950Y003569D03*
X018490Y003529D03*
D19*
X017490Y003529D03*
X016490Y003529D03*
X015490Y003529D03*
X019950Y003569D03*
X020950Y003569D03*
X021630Y009689D03*
X021630Y010689D03*
X021630Y011689D03*
X021630Y012689D03*
X021630Y013689D03*
X021630Y014689D03*
D20*
X005340Y017129D03*
X004430Y017129D03*
X003520Y017129D03*
D21*
X004430Y019569D03*
D22*
X006990Y017959D03*
X001850Y017959D03*
X025440Y010169D03*
X027290Y002819D03*
D23*
X027290Y003519D03*
X026140Y010169D03*
X006990Y018659D03*
X001850Y018659D03*
D24*
X005128Y007418D03*
X009852Y007418D03*
X010639Y005056D03*
X009852Y002694D03*
X005128Y002694D03*
D25*
X011877Y006789D03*
X012743Y007163D03*
X012743Y006415D03*
D26*
X012790Y005409D03*
X013810Y005429D03*
X013810Y004309D03*
X012790Y004289D03*
X017470Y004849D03*
X018530Y004829D03*
X018530Y005949D03*
X017470Y005969D03*
X024590Y004029D03*
X024590Y002909D03*
X024370Y012269D03*
X024370Y013389D03*
X024350Y014349D03*
X024350Y015469D03*
X024330Y016429D03*
X024330Y017549D03*
X024330Y018569D03*
X024330Y019689D03*
X027310Y017589D03*
X027310Y016469D03*
X027330Y015509D03*
X027330Y014389D03*
X027350Y013429D03*
X027350Y012309D03*
D27*
X011870Y005360D03*
X011870Y004218D03*
D28*
X002030Y007029D03*
D29*
X002030Y005060D03*
X002030Y003092D03*
D30*
X031690Y006829D03*
D31*
X028410Y006829D03*
X028410Y007499D03*
X028410Y008169D03*
X028410Y006159D03*
X028410Y005489D03*
D32*
X026381Y008749D03*
X025279Y008749D03*
X022021Y007869D03*
X020919Y007869D03*
X020919Y006829D03*
X022021Y006829D03*
X022021Y005829D03*
X020919Y005829D03*
X035019Y006289D03*
X036121Y006289D03*
X036141Y005329D03*
X035039Y005329D03*
X035019Y004409D03*
X036121Y004409D03*
X035741Y009649D03*
X034639Y009649D03*
X036759Y009649D03*
X037861Y009649D03*
X011181Y014869D03*
X010079Y014869D03*
X006701Y014869D03*
X005599Y014869D03*
X003661Y014849D03*
X002559Y014849D03*
D33*
X001250Y013500D03*
X001250Y012398D03*
X001250Y011240D03*
X001250Y010138D03*
X008850Y009618D03*
X008850Y010720D03*
X008850Y011638D03*
X008850Y012740D03*
X025630Y004020D03*
X025630Y002918D03*
X027610Y009798D03*
X028970Y009798D03*
X028970Y010900D03*
X027610Y010900D03*
D34*
X030459Y009689D03*
X031578Y009689D03*
X032530Y009669D03*
X033650Y009669D03*
X026390Y007789D03*
X025270Y007789D03*
X025270Y006829D03*
X026390Y006829D03*
X022030Y004849D03*
X020910Y004849D03*
X011190Y013969D03*
X010070Y013969D03*
X031690Y022749D03*
X032810Y022749D03*
X037290Y018969D03*
X038410Y018969D03*
X038410Y017989D03*
X037290Y017989D03*
X037290Y015089D03*
X038410Y015089D03*
D35*
X019013Y012864D03*
X019013Y012549D03*
X019013Y012234D03*
X019013Y011919D03*
X019013Y011604D03*
X019013Y011289D03*
X019013Y010974D03*
X019013Y010659D03*
X019013Y010344D03*
X019013Y010029D03*
X019013Y009714D03*
X014447Y009714D03*
X014447Y010029D03*
X014447Y010344D03*
X014447Y010659D03*
X014447Y010974D03*
X014447Y011289D03*
X014447Y011604D03*
X014447Y011919D03*
X014447Y012234D03*
X014447Y012549D03*
X014447Y012864D03*
D36*
X015155Y013572D03*
X015470Y013572D03*
X015785Y013572D03*
X016100Y013572D03*
X016415Y013572D03*
X016730Y013572D03*
X017045Y013572D03*
X017360Y013572D03*
X017675Y013572D03*
X017990Y013572D03*
X018305Y013572D03*
X018305Y009005D03*
X017990Y009005D03*
X017675Y009005D03*
X017360Y009005D03*
X017045Y009005D03*
X016730Y009005D03*
X016415Y009005D03*
X016100Y009005D03*
X015785Y009005D03*
X015470Y009005D03*
X015155Y009005D03*
D37*
X007171Y010139D03*
X007171Y010639D03*
X007171Y011139D03*
X007171Y011639D03*
X007171Y012139D03*
X007171Y012639D03*
X007171Y013139D03*
X007171Y013639D03*
X005049Y013639D03*
X005049Y013139D03*
X005049Y012639D03*
X005049Y012139D03*
X005049Y011639D03*
X005049Y011139D03*
X005049Y010639D03*
X005049Y010139D03*
D38*
X029413Y013712D03*
X029413Y014145D03*
X029413Y014578D03*
X029413Y015011D03*
X029413Y015445D03*
X029413Y015878D03*
X029413Y016311D03*
X029413Y016744D03*
X029413Y017177D03*
X029413Y017610D03*
X029413Y018043D03*
X029413Y018476D03*
X035319Y018476D03*
X035319Y018043D03*
X035319Y017610D03*
X035319Y017177D03*
X035319Y016744D03*
X035319Y016311D03*
X035319Y015878D03*
X035319Y015445D03*
X035319Y015011D03*
X035319Y014578D03*
X035319Y014145D03*
X035319Y013693D03*
D39*
X034098Y012767D03*
X033665Y012767D03*
X033232Y012767D03*
X032799Y012767D03*
X032366Y012767D03*
X031933Y012767D03*
X031500Y012767D03*
X031067Y012767D03*
X030634Y012767D03*
X030634Y019421D03*
X031067Y019421D03*
X031500Y019421D03*
X031933Y019421D03*
X032366Y019421D03*
X032799Y019421D03*
X033232Y019421D03*
X033665Y019421D03*
X034098Y019421D03*
D40*
X010570Y012119D03*
X010570Y010219D03*
X002930Y010879D03*
X002930Y012779D03*
D41*
X035160Y008009D03*
X037660Y008009D03*
D42*
X026224Y012415D03*
X025397Y012789D03*
X026224Y013163D03*
X026204Y014575D03*
X025377Y014949D03*
X026204Y015323D03*
X026184Y016655D03*
X025357Y017029D03*
X026184Y017403D03*
D43*
X026064Y018616D03*
X025316Y018616D03*
X025690Y019482D03*
X037476Y017042D03*
X038224Y017042D03*
X037850Y016176D03*
X016084Y005802D03*
X015336Y005802D03*
X015710Y004936D03*
D44*
X028569Y022129D03*
X029651Y022129D03*
X034449Y022169D03*
X035531Y022169D03*
D45*
X034990Y022769D03*
X029110Y022729D03*
D46*
X037259Y014129D03*
X038441Y014129D03*
D47*
X038441Y015089D01*
X038410Y015089D01*
X037290Y015089D02*
X037290Y016176D01*
X037850Y016176D01*
X038410Y017989D02*
X038410Y018969D01*
X027310Y017609D02*
X027310Y017589D01*
X027310Y017609D02*
X026330Y017609D01*
X026330Y017403D01*
X026184Y017403D01*
X025357Y017029D02*
X025130Y017029D01*
X025130Y016409D01*
X024330Y016409D01*
X024330Y016429D01*
X024350Y015469D02*
X022490Y015469D01*
X022490Y013389D01*
X023210Y013389D01*
X023210Y010969D01*
X026140Y010969D01*
X026140Y010169D01*
X026370Y009939D01*
X026370Y008749D01*
X027690Y008749D01*
X027690Y007529D01*
X027690Y007489D01*
X028410Y007489D01*
X028410Y007499D01*
X028410Y008169D02*
X028430Y008169D01*
X028470Y008209D01*
X026390Y007789D02*
X026390Y006829D01*
X026410Y006829D01*
X026410Y005529D01*
X028410Y005529D01*
X028410Y005489D01*
X028410Y006159D02*
X028410Y006169D01*
X027690Y006169D01*
X027370Y006809D02*
X028410Y006809D01*
X028410Y006829D01*
X027690Y004969D02*
X027690Y004409D01*
X027290Y004409D01*
X027290Y003519D01*
X027290Y004020D01*
X025630Y004020D01*
X025630Y004029D01*
X024590Y004029D01*
X024590Y006829D01*
X025270Y006829D01*
X025279Y007689D02*
X025279Y007769D01*
X024330Y007769D01*
X025279Y007689D02*
X025290Y007689D01*
X025279Y007689D02*
X025279Y008749D01*
X025279Y010008D01*
X025440Y010169D01*
X025210Y012249D02*
X024370Y012249D01*
X024370Y012269D01*
X025210Y012249D02*
X025210Y012789D01*
X025397Y012789D01*
X026224Y013163D02*
X026410Y013163D01*
X026410Y013449D01*
X027350Y013449D01*
X027350Y013429D01*
X025210Y014329D02*
X024350Y014329D01*
X024350Y014349D01*
X025210Y014329D02*
X025210Y014949D01*
X025377Y014949D01*
X026204Y015323D02*
X026330Y015323D01*
X026330Y015529D01*
X027330Y015529D01*
X027330Y015509D01*
X024370Y013389D02*
X023210Y013389D01*
X022490Y015469D02*
X022490Y017609D01*
X024330Y017609D01*
X012070Y017369D02*
X008630Y017369D01*
X008630Y016329D01*
X004330Y016329D01*
X004410Y016329D01*
X004430Y016329D01*
X004430Y017129D01*
X005290Y017129D02*
X005290Y016809D01*
X006250Y016809D01*
X007530Y016809D01*
X006250Y016809D02*
X006250Y016889D01*
X006250Y018659D01*
X006990Y018659D01*
X004330Y016329D02*
X001290Y016329D01*
X001290Y018659D01*
X001850Y018659D01*
X001850Y017959D02*
X001850Y016809D01*
X003530Y016809D01*
X003530Y017129D01*
X003520Y017129D01*
X006701Y015609D02*
X007530Y015609D01*
X006701Y015609D02*
X006701Y014869D01*
X008810Y012729D02*
X010570Y012729D01*
X010570Y012119D01*
X008850Y011638D02*
X008850Y011369D01*
X008850Y010720D01*
X010570Y010219D02*
X010570Y009618D01*
X008850Y009618D01*
X009852Y007418D02*
X010481Y006789D01*
X011877Y006789D01*
X011877Y005367D01*
X011870Y005360D01*
X012790Y005409D02*
X012790Y006368D01*
X012743Y006415D01*
X015490Y004716D02*
X015710Y004936D01*
X015490Y004716D02*
X015490Y003529D01*
X016490Y003529D02*
X016490Y002729D01*
X011870Y002729D01*
X011870Y003309D01*
X011870Y004218D01*
X011870Y003309D02*
X011850Y003289D01*
X010447Y003289D01*
X009852Y002694D01*
X017470Y003529D02*
X017470Y004849D01*
X018530Y004829D02*
X018530Y003529D01*
X018490Y003529D01*
X017490Y003529D02*
X017470Y003529D01*
X019950Y003569D02*
X019950Y005849D01*
X019950Y005829D01*
X020919Y005829D01*
X020919Y006829D01*
X020919Y007869D01*
X022010Y006729D02*
X022010Y005829D01*
X022021Y005829D01*
X022010Y005849D02*
X022010Y004849D01*
X022030Y004849D01*
X022030Y003489D01*
X021950Y003569D01*
X020950Y003569D02*
X020910Y003569D01*
X020910Y004849D01*
X019950Y005849D02*
X019950Y005949D01*
X018530Y005969D02*
X018530Y005949D01*
X018530Y005969D02*
X017470Y005969D01*
X024590Y002909D02*
X025630Y002909D01*
X025630Y002918D01*
X027290Y002918D01*
X027290Y002819D01*
X027690Y004409D02*
X035050Y004409D01*
X036759Y008009D02*
X036759Y009649D01*
X035741Y009649D01*
X034919Y009709D02*
X034639Y009649D01*
X034919Y009709D02*
X033650Y009669D01*
X030459Y009689D02*
X029770Y009689D01*
X036759Y008009D02*
X037660Y008009D01*
X037861Y009649D02*
X038450Y009649D01*
D48*
X037259Y014129D02*
X036490Y014129D01*
X036490Y014089D01*
X037476Y017042D02*
X037290Y017228D01*
X037290Y017989D01*
X038410Y017989D02*
X038410Y017228D01*
X038224Y017042D01*
X026650Y021129D02*
X019690Y021129D01*
X019690Y020409D01*
X019210Y019929D01*
X019210Y017369D01*
X014720Y017369D01*
X014720Y016149D01*
X014720Y017369D01*
X012090Y017369D01*
X007850Y014869D02*
X007850Y013849D01*
X007850Y013689D01*
X007850Y013639D01*
X007171Y013639D01*
X006701Y014869D02*
X007850Y014869D01*
X005599Y014849D02*
X005599Y014869D01*
X005599Y014849D02*
X004650Y014849D01*
X004650Y015449D01*
X004650Y014849D01*
X004650Y015449D01*
X004650Y014849D02*
X003661Y014849D01*
X004650Y014849D02*
X004650Y013639D01*
X005049Y013639D01*
X004090Y014009D02*
X002559Y014009D01*
X002559Y014849D01*
X004090Y014009D02*
X004090Y012139D01*
X005049Y012139D01*
X003690Y012809D02*
X002930Y012809D01*
X002930Y012779D01*
X002930Y013500D01*
X001250Y013500D01*
X001250Y012398D02*
X002090Y012398D01*
X002090Y012409D01*
X001250Y012398D02*
X001250Y011240D01*
X001250Y010138D02*
X002970Y010138D01*
X002970Y010169D01*
X002970Y010139D01*
X005049Y010139D01*
X005049Y010639D02*
X003690Y010639D01*
X003690Y012809D01*
X002970Y010889D02*
X002970Y010169D01*
D49*
X004330Y009369D03*
X004330Y011209D03*
X002090Y012409D03*
X004650Y014849D03*
X004650Y015449D03*
X007530Y015609D03*
X007530Y016809D03*
X009370Y014809D03*
X012330Y015529D03*
X012650Y015209D03*
X014730Y014169D03*
X015130Y014889D03*
X016250Y014889D03*
X016730Y015529D03*
X017250Y015209D03*
X017690Y014569D03*
X018090Y014969D03*
X017290Y014169D03*
X016730Y014169D03*
X015450Y012729D03*
X015770Y012409D03*
X016330Y012089D03*
X016330Y011689D03*
X017130Y011689D03*
X017450Y010889D03*
X016650Y010889D03*
X015770Y010249D03*
X015130Y010569D03*
X015450Y009849D03*
X015450Y007849D03*
X016090Y007529D03*
X016730Y007209D03*
X017370Y007209D03*
X017850Y007209D03*
X016090Y006329D03*
X013850Y006169D03*
X014570Y004329D03*
X012810Y003529D03*
X019290Y004809D03*
X019610Y006489D03*
X020090Y006969D03*
X022810Y006489D03*
X023610Y006969D03*
X024330Y007769D03*
X027370Y006809D03*
X027690Y006169D03*
X027690Y004969D03*
X028410Y004009D03*
X029210Y003609D03*
X029530Y003289D03*
X032090Y004009D03*
X032490Y003689D03*
X035770Y003049D03*
X037610Y004409D03*
X038450Y009649D03*
X036490Y010489D03*
X032570Y010409D03*
X031850Y010409D03*
X030090Y010649D03*
X029770Y009689D03*
X028410Y008809D03*
X027690Y007529D03*
X028250Y010969D03*
X026650Y012009D03*
X025450Y011609D03*
X024410Y011609D03*
X023210Y010969D03*
X026650Y014169D03*
X026650Y016169D03*
X023690Y016409D03*
X022970Y016009D03*
X022970Y016889D03*
X022970Y014329D03*
X015210Y016889D03*
X020090Y020009D03*
X020490Y020009D03*
X022970Y020329D03*
X026650Y021129D03*
X027370Y021369D03*
X027930Y022009D03*
X030250Y022729D03*
X030810Y022089D03*
X032810Y022009D03*
X035610Y019449D03*
X036090Y018889D03*
X036090Y018089D03*
X037290Y020169D03*
X031050Y018569D03*
X027930Y019849D03*
X027370Y019849D03*
X033690Y014249D03*
X033690Y013529D03*
X032810Y013529D03*
X031530Y013529D03*
X036490Y014089D03*
X012970Y012569D03*
X011290Y011449D03*
X009770Y011289D03*
X007850Y012089D03*
D50*
X012743Y007163D02*
X015330Y007163D01*
X015330Y006729D01*
X015330Y005809D01*
X030623Y001778D02*
X032570Y001778D01*
X033556Y001778D01*
X035770Y001778D01*
X035770Y003049D01*
X036121Y004409D02*
X037610Y004409D01*
X012070Y018769D02*
X007770Y018769D01*
X007770Y017929D01*
X006990Y017929D01*
X006990Y017959D01*
D51*
X035019Y008009D02*
X035019Y006289D01*
X035039Y006289D01*
X035039Y005329D01*
X035039Y004489D01*
X034970Y004489D01*
X035019Y004409D02*
X035019Y004169D01*
X036121Y004409D02*
X037610Y004409D01*
X037610Y005369D01*
X037610Y006329D01*
X037660Y006289D02*
X036121Y006289D01*
X036141Y005329D02*
X037610Y005329D01*
X037610Y005369D01*
X037660Y006289D02*
X037660Y008009D01*
X035160Y008009D02*
X035019Y008009D01*
X035039Y005329D02*
X035019Y005329D01*
M02*
