G75*
G70*
%OFA0B0*%
%FSLAX24Y24*%
%IPPOS*%
%LPD*%
%AMOC8*
5,1,8,0,0,1.08239X$1,22.5*
%
%ADD10C,0.0820*%
%ADD11C,0.0680*%
%ADD12C,0.0800*%
%ADD13R,0.0960X0.0560*%
%ADD14R,0.0946X0.1497*%
%ADD15C,0.0715*%
%ADD16R,0.0769X0.0237*%
%ADD17C,0.1080*%
%ADD18C,0.0493*%
%ADD19C,0.0720*%
%ADD20C,0.0840*%
%ADD21R,0.0867X0.0710*%
%ADD22R,0.0676X0.0676*%
D10*
X017320Y002787D03*
X017320Y003787D03*
X017320Y004787D03*
X017320Y005787D03*
X017320Y006787D03*
X017320Y007787D03*
X021320Y007787D03*
X021320Y006787D03*
X021320Y005787D03*
X021320Y004787D03*
X021320Y003787D03*
X021320Y002787D03*
D11*
X014160Y002917D03*
X014160Y003617D03*
X008400Y003617D03*
X008400Y002917D03*
D12*
X001834Y010972D03*
X001834Y011972D03*
X001834Y012972D03*
X001834Y013972D03*
X001834Y014972D03*
X001834Y015972D03*
X001834Y016972D03*
X018481Y018987D03*
X019481Y018987D03*
X020481Y018987D03*
X021481Y018987D03*
X021481Y019987D03*
X020481Y019987D03*
X019481Y019987D03*
X018481Y019987D03*
X024561Y016523D03*
X024561Y015523D03*
X024561Y014523D03*
X024561Y013523D03*
X024537Y012066D03*
X024537Y011066D03*
X024537Y010066D03*
X024537Y009066D03*
X024580Y005807D03*
X024580Y004807D03*
X024580Y003807D03*
X024580Y002807D03*
D13*
X012360Y002907D03*
X012360Y001997D03*
X012360Y003817D03*
D14*
X009920Y002907D03*
D15*
X010300Y005487D03*
X011300Y005487D03*
X012300Y005487D03*
X012300Y006487D03*
X011300Y006487D03*
X010300Y006487D03*
X008300Y005987D03*
X008300Y006987D03*
X008300Y007987D03*
X008300Y008987D03*
X008300Y009987D03*
X008300Y010987D03*
X008300Y011987D03*
X008300Y012987D03*
X008300Y013987D03*
X008300Y014987D03*
X008300Y015987D03*
X008300Y016987D03*
X008300Y017987D03*
X008300Y018987D03*
X008300Y019987D03*
X014300Y019987D03*
X014300Y018987D03*
X014300Y017987D03*
X014300Y016987D03*
X014300Y015987D03*
X014300Y014987D03*
X014300Y013987D03*
X014300Y012987D03*
X014300Y011987D03*
X014300Y010987D03*
X014300Y009987D03*
X014300Y008987D03*
X014300Y007987D03*
X014300Y006987D03*
X014300Y005987D03*
D16*
X002281Y004239D03*
X002281Y003983D03*
X002281Y003727D03*
X002281Y003471D03*
X002281Y003215D03*
D17*
X001169Y002261D03*
X001169Y005194D03*
D18*
X002362Y004682D03*
X002362Y002772D03*
D19*
X024820Y018547D03*
X024820Y019947D03*
D20*
X007305Y013250D03*
X007320Y012067D03*
X007322Y010884D03*
X003322Y010884D03*
X003320Y012067D03*
X003305Y013250D03*
D21*
X003817Y019491D03*
X003817Y020593D03*
X002411Y020593D03*
X002411Y019491D03*
X005274Y019491D03*
X005274Y020593D03*
X006760Y020593D03*
X006760Y019491D03*
D22*
X005300Y018127D03*
X003780Y018127D03*
X003780Y015967D03*
X005300Y014980D03*
X000980Y020527D03*
X000980Y007087D03*
X006580Y006127D03*
X006580Y001167D03*
X013620Y001967D03*
X019380Y001967D03*
X022500Y004767D03*
X023380Y004767D03*
X024500Y007567D03*
X026580Y007567D03*
X023380Y001167D03*
X023391Y016987D03*
X022481Y018987D03*
X022481Y019987D03*
X023380Y021007D03*
M02*
