%
M48
M72
T01C0.0236
T02C0.0280
T03C0.0315
T04C0.0320
T05C0.0400
T06C0.0413
T07C0.0440
T08C0.0472
%
T01
X6580Y1167
X6580Y6127
X980Y7087
X5300Y14980
X3780Y15967
X3780Y18127
X5300Y18127
X980Y20527
X22481Y19987
X23380Y21007
X22481Y18987
X23391Y16987
X24500Y7567
X26580Y7567
X23380Y4767
X22500Y4767
X19380Y1967
X23380Y1167
X13620Y1967
T02
X14160Y2917
X14160Y3617
X8400Y3617
X8400Y2917
T03
X10300Y5487
X11300Y5487
X12300Y5487
X12300Y6487
X11300Y6487
X10300Y6487
X8300Y5987
X8300Y6987
X8300Y7987
X8300Y8987
X8300Y9987
X8300Y10987
X8300Y11987
X8300Y12987
X8300Y13987
X8300Y14987
X8300Y15987
X8300Y16987
X8300Y17987
X8300Y18987
X8300Y19987
X14300Y19987
X14300Y18987
X14300Y17987
X14300Y16987
X14300Y15987
X14300Y14987
X14300Y13987
X14300Y12987
X14300Y11987
X14300Y10987
X14300Y9987
X14300Y8987
X14300Y7987
X14300Y6987
X14300Y5987
T04
X24820Y18547
X24820Y19947
T05
X21481Y19987
X20481Y19987
X19481Y19987
X18481Y19987
X18481Y18987
X19481Y18987
X20481Y18987
X21481Y18987
X24561Y16523
X24561Y15523
X24561Y14523
X24561Y13523
X24537Y12066
X24537Y11066
X24537Y10066
X24537Y9066
X21320Y7787
X21320Y6787
X21320Y5787
X21320Y4787
X21320Y3787
X21320Y2787
X24580Y2807
X24580Y3807
X24580Y4807
X24580Y5807
X17320Y5787
X17320Y4787
X17320Y3787
X17320Y2787
X17320Y6787
X17320Y7787
X1834Y10972
X1834Y11972
X1834Y12972
X1834Y13972
X1834Y14972
X1834Y15972
X1834Y16972
T06
X2362Y4682
X2362Y2772
T07
X3322Y10884
X3320Y12067
X3305Y13250
X7305Y13250
X7320Y12067
X7322Y10884
T08
X1169Y2261
X1169Y5194
M30
