G75*
G70*
%OFA0B0*%
%FSLAX24Y24*%
%IPPOS*%
%LPD*%
%AMOC8*
5,1,8,0,0,1.08239X$1,22.5*
%
%ADD10C,0.0100*%
%ADD11C,0.0050*%
%ADD12C,0.0060*%
%ADD13R,0.0200X0.1000*%
%ADD14R,0.0750X0.0300*%
D10*
X001334Y010472D02*
X002334Y010472D01*
X002334Y016472D01*
X001334Y016472D01*
X002334Y016472D02*
X002334Y017472D01*
X001334Y017472D01*
X001334Y010472D01*
X016339Y009629D02*
X016339Y020652D01*
X022245Y020652D01*
X022245Y009629D01*
X016339Y009629D01*
X024037Y008566D02*
X025037Y008566D01*
X025037Y011566D01*
X024037Y011566D01*
X025037Y011566D02*
X025037Y012566D01*
X024037Y012566D01*
X024037Y008566D01*
X024080Y006307D02*
X024080Y003307D01*
X025080Y003307D01*
X024080Y003307D02*
X024080Y002307D01*
X025080Y002307D01*
X025080Y006307D01*
X024080Y006307D01*
X024061Y013023D02*
X024061Y014023D01*
X025061Y014023D01*
X024061Y014023D02*
X024061Y017023D01*
X025061Y017023D01*
X025061Y013023D01*
X024061Y013023D01*
X021981Y018487D02*
X017981Y018487D01*
X017981Y020487D01*
X018731Y020487D01*
X019231Y020487D01*
X019731Y020487D01*
X020231Y020487D01*
X020731Y020487D01*
X021481Y020487D01*
X021981Y020487D01*
X021981Y018487D01*
D11*
X023320Y020572D02*
X023620Y020572D01*
X023695Y020647D01*
X023695Y020797D01*
X023620Y020872D01*
X023695Y021032D02*
X023695Y021333D01*
X023695Y021183D02*
X023245Y021183D01*
X023395Y021032D01*
X023320Y020872D02*
X023245Y020797D01*
X023245Y020647D01*
X023320Y020572D01*
X019227Y020762D02*
X018927Y020762D01*
X019077Y020762D02*
X019077Y021212D01*
X018927Y021062D01*
X018767Y020987D02*
X018692Y020912D01*
X018466Y020912D01*
X018466Y020762D02*
X018466Y021212D01*
X018692Y021212D01*
X018767Y021137D01*
X018767Y020987D01*
X018306Y021212D02*
X018156Y021212D01*
X018231Y021212D02*
X018231Y020837D01*
X018156Y020762D01*
X018081Y020762D01*
X018006Y020837D01*
X023366Y014239D02*
X023441Y014088D01*
X023591Y013938D01*
X023591Y014163D01*
X023666Y014239D01*
X023741Y014239D01*
X023816Y014163D01*
X023816Y014013D01*
X023741Y013938D01*
X023591Y013938D01*
X023591Y013778D02*
X023441Y013778D01*
X023366Y013703D01*
X023366Y013478D01*
X023816Y013478D01*
X023666Y013478D02*
X023666Y013703D01*
X023591Y013778D01*
X023366Y013318D02*
X023366Y013168D01*
X023366Y013243D02*
X023741Y013243D01*
X023816Y013168D01*
X023816Y013093D01*
X023741Y013018D01*
X025282Y012386D02*
X025282Y012235D01*
X025357Y012160D01*
X025357Y012000D02*
X025507Y012000D01*
X025582Y011925D01*
X025582Y011700D01*
X025732Y011700D02*
X025282Y011700D01*
X025282Y011925D01*
X025357Y012000D01*
X025282Y012386D02*
X025357Y012461D01*
X025432Y012461D01*
X025732Y012160D01*
X025732Y012461D01*
X025657Y011465D02*
X025282Y011465D01*
X025282Y011390D02*
X025282Y011540D01*
X025657Y011465D02*
X025732Y011390D01*
X025732Y011315D01*
X025657Y011240D01*
X022529Y008571D02*
X022529Y008507D01*
X022497Y008475D01*
X022402Y008475D01*
X022402Y008412D02*
X022402Y008602D01*
X022497Y008602D01*
X022529Y008571D01*
X022465Y008475D02*
X022529Y008412D01*
X022308Y008412D02*
X022181Y008412D01*
X022181Y008602D01*
X022308Y008602D01*
X022244Y008507D02*
X022181Y008507D01*
X022087Y008602D02*
X021960Y008602D01*
X022023Y008602D02*
X022023Y008412D01*
X021866Y008412D02*
X021802Y008475D01*
X021834Y008475D02*
X021739Y008475D01*
X021739Y008412D02*
X021739Y008602D01*
X021834Y008602D01*
X021866Y008571D01*
X021866Y008507D01*
X021834Y008475D01*
X021820Y008287D02*
X016820Y008287D01*
X016820Y002287D01*
X021820Y002287D01*
X021820Y008287D01*
X021645Y008412D02*
X021518Y008412D01*
X021518Y008602D01*
X021645Y008602D01*
X021581Y008507D02*
X021518Y008507D01*
X021424Y008475D02*
X021424Y008602D01*
X021424Y008475D02*
X021360Y008412D01*
X021297Y008475D01*
X021297Y008602D01*
X021203Y008602D02*
X021203Y008412D01*
X021076Y008602D01*
X021076Y008412D01*
X020982Y008444D02*
X020982Y008571D01*
X020950Y008602D01*
X020887Y008602D01*
X020855Y008571D01*
X020855Y008444D01*
X020887Y008412D01*
X020950Y008412D01*
X020982Y008444D01*
X020761Y008444D02*
X020729Y008412D01*
X020666Y008412D01*
X020634Y008444D01*
X020634Y008571D01*
X020666Y008602D01*
X020729Y008602D01*
X020761Y008571D01*
X020540Y008380D02*
X020413Y008380D01*
X020319Y008412D02*
X020192Y008412D01*
X020192Y008602D01*
X020098Y008602D02*
X019971Y008602D01*
X019971Y008412D01*
X020098Y008412D01*
X020035Y008507D02*
X019971Y008507D01*
X019877Y008475D02*
X019877Y008602D01*
X019877Y008475D02*
X019814Y008412D01*
X019750Y008475D01*
X019750Y008602D01*
X019656Y008602D02*
X019529Y008602D01*
X019529Y008412D01*
X019656Y008412D01*
X019593Y008507D02*
X019529Y008507D01*
X019435Y008412D02*
X019308Y008412D01*
X019308Y008602D01*
X019214Y008380D02*
X019087Y008380D01*
X018993Y008444D02*
X018961Y008412D01*
X018898Y008412D01*
X018866Y008444D01*
X018866Y008571D01*
X018898Y008602D01*
X018961Y008602D01*
X018993Y008571D01*
X018782Y008602D02*
X018719Y008602D01*
X018751Y008602D02*
X018751Y008412D01*
X018782Y008412D02*
X018719Y008412D01*
X018625Y008444D02*
X018625Y008507D01*
X018561Y008507D01*
X018498Y008444D02*
X018530Y008412D01*
X018593Y008412D01*
X018625Y008444D01*
X018625Y008571D02*
X018593Y008602D01*
X018530Y008602D01*
X018498Y008571D01*
X018498Y008444D01*
X018404Y008444D02*
X018404Y008571D01*
X018372Y008602D01*
X018309Y008602D01*
X018277Y008571D01*
X018277Y008444D01*
X018309Y008412D01*
X018372Y008412D01*
X018404Y008444D01*
X018183Y008412D02*
X018056Y008412D01*
X018056Y008602D01*
X017962Y008380D02*
X017835Y008380D01*
X017741Y008412D02*
X017741Y008602D01*
X017614Y008602D02*
X017741Y008412D01*
X017614Y008412D02*
X017614Y008602D01*
X017520Y008602D02*
X017520Y008444D01*
X017488Y008412D01*
X017425Y008412D01*
X017393Y008444D01*
X017393Y008602D01*
X017299Y008602D02*
X017172Y008602D01*
X017172Y008412D01*
X017078Y008412D02*
X016983Y008507D01*
X016951Y008475D02*
X017078Y008602D01*
X016951Y008602D02*
X016951Y008412D01*
X016857Y008412D02*
X016793Y008475D01*
X016825Y008475D02*
X016730Y008475D01*
X016730Y008412D02*
X016730Y008602D01*
X016825Y008602D01*
X016857Y008571D01*
X016857Y008507D01*
X016825Y008475D01*
X016636Y008507D02*
X016509Y008507D01*
X016509Y008539D02*
X016509Y008412D01*
X016636Y008412D02*
X016636Y008539D01*
X016572Y008602D01*
X016509Y008539D01*
X016415Y008571D02*
X016415Y008507D01*
X016383Y008475D01*
X016288Y008475D01*
X016288Y008412D02*
X016288Y008602D01*
X016383Y008602D01*
X016415Y008571D01*
X016194Y008571D02*
X016162Y008602D01*
X016099Y008602D01*
X016067Y008571D01*
X016067Y008539D01*
X016099Y008507D01*
X016162Y008507D01*
X016194Y008475D01*
X016194Y008444D01*
X016162Y008412D01*
X016099Y008412D01*
X016067Y008444D01*
X017172Y008507D02*
X017235Y008507D01*
X013760Y004903D02*
X013685Y004903D01*
X013610Y004828D01*
X013610Y004753D01*
X013610Y004828D02*
X013535Y004903D01*
X013460Y004903D01*
X013385Y004828D01*
X013385Y004678D01*
X013460Y004602D01*
X013460Y004442D02*
X013385Y004367D01*
X013385Y004217D01*
X013460Y004142D01*
X013760Y004142D01*
X013835Y004217D01*
X013835Y004367D01*
X013760Y004442D01*
X013760Y004602D02*
X013835Y004678D01*
X013835Y004828D01*
X013760Y004903D01*
X019124Y002162D02*
X019124Y001972D01*
X019219Y001972D01*
X019251Y002004D01*
X019251Y002035D01*
X019219Y002067D01*
X019124Y002067D01*
X019219Y002067D02*
X019251Y002099D01*
X019251Y002131D01*
X019219Y002162D01*
X019124Y002162D01*
X019345Y002099D02*
X019408Y002162D01*
X019408Y001972D01*
X019345Y001972D02*
X019472Y001972D01*
X023385Y002452D02*
X023385Y002602D01*
X023385Y002527D02*
X023760Y002527D01*
X023835Y002452D01*
X023835Y002377D01*
X023760Y002302D01*
X023835Y002762D02*
X023385Y002762D01*
X023385Y002988D01*
X023460Y003063D01*
X023610Y003063D01*
X023685Y002988D01*
X023685Y002762D01*
X023760Y003223D02*
X023835Y003298D01*
X023835Y003448D01*
X023760Y003523D01*
X023610Y003523D01*
X023535Y003448D01*
X023535Y003373D01*
X023610Y003223D01*
X023385Y003223D01*
X023385Y003523D01*
X008075Y004217D02*
X008075Y004367D01*
X008000Y004442D01*
X008075Y004602D02*
X007775Y004903D01*
X007700Y004903D01*
X007625Y004828D01*
X007625Y004678D01*
X007700Y004602D01*
X007700Y004442D02*
X007625Y004367D01*
X007625Y004217D01*
X007700Y004142D01*
X008000Y004142D01*
X008075Y004217D01*
X008075Y004602D02*
X008075Y004903D01*
X005308Y011559D02*
X005007Y011559D01*
X005158Y011559D02*
X005158Y012009D01*
X005007Y011859D01*
X004847Y011934D02*
X004847Y011634D01*
X004772Y011559D01*
X004547Y011559D01*
X004547Y012009D01*
X004772Y012009D01*
X004847Y011934D01*
X004770Y012742D02*
X004545Y012742D01*
X004545Y013192D01*
X004770Y013192D01*
X004845Y013117D01*
X004845Y012817D01*
X004770Y012742D01*
X005005Y012742D02*
X005305Y013042D01*
X005305Y013117D01*
X005230Y013192D01*
X005080Y013192D01*
X005005Y013117D01*
X005005Y012742D02*
X005305Y012742D01*
X005216Y013925D02*
X005065Y013925D01*
X004990Y014000D01*
X004830Y014000D02*
X004830Y014300D01*
X004755Y014375D01*
X004530Y014375D01*
X004530Y013925D01*
X004755Y013925D01*
X004830Y014000D01*
X004990Y014300D02*
X005065Y014375D01*
X005216Y014375D01*
X005291Y014300D01*
X005291Y014225D01*
X005216Y014150D01*
X005291Y014075D01*
X005291Y014000D01*
X005216Y013925D01*
X005216Y014150D02*
X005141Y014150D01*
X003029Y016221D02*
X003029Y016296D01*
X002953Y016371D01*
X002578Y016371D01*
X002578Y016296D02*
X002578Y016446D01*
X002578Y016606D02*
X002578Y016832D01*
X002653Y016907D01*
X002803Y016907D01*
X002878Y016832D01*
X002878Y016606D01*
X003029Y016606D02*
X002578Y016606D01*
X002653Y017067D02*
X002578Y017142D01*
X002578Y017292D01*
X002653Y017367D01*
X002728Y017367D01*
X002803Y017292D01*
X002878Y017367D01*
X002953Y017367D01*
X003029Y017292D01*
X003029Y017142D01*
X002953Y017067D01*
X002803Y017217D02*
X002803Y017292D01*
X003029Y016221D02*
X002953Y016146D01*
D12*
X007750Y002967D02*
X007950Y002967D01*
X007850Y002867D02*
X007850Y003067D01*
X007600Y003267D02*
X007602Y003323D01*
X007608Y003380D01*
X007618Y003435D01*
X007632Y003490D01*
X007649Y003544D01*
X007671Y003596D01*
X007696Y003646D01*
X007724Y003695D01*
X007756Y003742D01*
X007791Y003786D01*
X007829Y003828D01*
X007870Y003867D01*
X007914Y003902D01*
X007960Y003935D01*
X008008Y003964D01*
X008058Y003990D01*
X008110Y004013D01*
X008164Y004031D01*
X008218Y004046D01*
X008273Y004057D01*
X008329Y004064D01*
X008386Y004067D01*
X008442Y004066D01*
X008499Y004061D01*
X008554Y004052D01*
X008609Y004039D01*
X008663Y004022D01*
X008716Y004002D01*
X008767Y003978D01*
X008816Y003950D01*
X008863Y003919D01*
X008908Y003885D01*
X008951Y003847D01*
X008990Y003807D01*
X009027Y003764D01*
X009060Y003719D01*
X009090Y003671D01*
X009117Y003621D01*
X009140Y003570D01*
X009160Y003517D01*
X009176Y003463D01*
X009188Y003407D01*
X009196Y003352D01*
X009200Y003295D01*
X009200Y003239D01*
X009196Y003182D01*
X009188Y003127D01*
X009176Y003071D01*
X009160Y003017D01*
X009140Y002964D01*
X009117Y002913D01*
X009090Y002863D01*
X009060Y002815D01*
X009027Y002770D01*
X008990Y002727D01*
X008951Y002687D01*
X008908Y002649D01*
X008863Y002615D01*
X008816Y002584D01*
X008767Y002556D01*
X008716Y002532D01*
X008663Y002512D01*
X008609Y002495D01*
X008554Y002482D01*
X008499Y002473D01*
X008442Y002468D01*
X008386Y002467D01*
X008329Y002470D01*
X008273Y002477D01*
X008218Y002488D01*
X008164Y002503D01*
X008110Y002521D01*
X008058Y002544D01*
X008008Y002570D01*
X007960Y002599D01*
X007914Y002632D01*
X007870Y002667D01*
X007829Y002706D01*
X007791Y002748D01*
X007756Y002792D01*
X007724Y002839D01*
X007696Y002888D01*
X007671Y002938D01*
X007649Y002990D01*
X007632Y003044D01*
X007618Y003099D01*
X007608Y003154D01*
X007602Y003211D01*
X007600Y003267D01*
X013510Y002967D02*
X013710Y002967D01*
X013610Y002867D02*
X013610Y003067D01*
X013360Y003267D02*
X013362Y003323D01*
X013368Y003380D01*
X013378Y003435D01*
X013392Y003490D01*
X013409Y003544D01*
X013431Y003596D01*
X013456Y003646D01*
X013484Y003695D01*
X013516Y003742D01*
X013551Y003786D01*
X013589Y003828D01*
X013630Y003867D01*
X013674Y003902D01*
X013720Y003935D01*
X013768Y003964D01*
X013818Y003990D01*
X013870Y004013D01*
X013924Y004031D01*
X013978Y004046D01*
X014033Y004057D01*
X014089Y004064D01*
X014146Y004067D01*
X014202Y004066D01*
X014259Y004061D01*
X014314Y004052D01*
X014369Y004039D01*
X014423Y004022D01*
X014476Y004002D01*
X014527Y003978D01*
X014576Y003950D01*
X014623Y003919D01*
X014668Y003885D01*
X014711Y003847D01*
X014750Y003807D01*
X014787Y003764D01*
X014820Y003719D01*
X014850Y003671D01*
X014877Y003621D01*
X014900Y003570D01*
X014920Y003517D01*
X014936Y003463D01*
X014948Y003407D01*
X014956Y003352D01*
X014960Y003295D01*
X014960Y003239D01*
X014956Y003182D01*
X014948Y003127D01*
X014936Y003071D01*
X014920Y003017D01*
X014900Y002964D01*
X014877Y002913D01*
X014850Y002863D01*
X014820Y002815D01*
X014787Y002770D01*
X014750Y002727D01*
X014711Y002687D01*
X014668Y002649D01*
X014623Y002615D01*
X014576Y002584D01*
X014527Y002556D01*
X014476Y002532D01*
X014423Y002512D01*
X014369Y002495D01*
X014314Y002482D01*
X014259Y002473D01*
X014202Y002468D01*
X014146Y002467D01*
X014089Y002470D01*
X014033Y002477D01*
X013978Y002488D01*
X013924Y002503D01*
X013870Y002521D01*
X013818Y002544D01*
X013768Y002570D01*
X013720Y002599D01*
X013674Y002632D01*
X013630Y002667D01*
X013589Y002706D01*
X013551Y002748D01*
X013516Y002792D01*
X013484Y002839D01*
X013456Y002888D01*
X013431Y002938D01*
X013409Y002990D01*
X013392Y003044D01*
X013378Y003099D01*
X013368Y003154D01*
X013362Y003211D01*
X013360Y003267D01*
X017716Y003497D02*
X017716Y003757D01*
X017716Y003627D02*
X017890Y003627D01*
X018011Y003584D02*
X018011Y003757D01*
X017890Y003757D02*
X017890Y003497D01*
X018011Y003584D02*
X018097Y003497D01*
X018184Y003584D01*
X018184Y003757D01*
X018305Y003714D02*
X018349Y003757D01*
X018435Y003757D01*
X018479Y003714D01*
X018479Y003671D01*
X018305Y003497D01*
X018479Y003497D01*
X018392Y002757D02*
X018392Y002497D01*
X018305Y002497D02*
X018479Y002497D01*
X018305Y002671D02*
X018392Y002757D01*
X018184Y002757D02*
X018184Y002584D01*
X018097Y002497D01*
X018011Y002584D01*
X018011Y002757D01*
X017890Y002757D02*
X017890Y002497D01*
X017890Y002627D02*
X017716Y002627D01*
X017716Y002497D02*
X017716Y002757D01*
X017761Y004497D02*
X017761Y004757D01*
X017761Y004627D02*
X017934Y004627D01*
X018055Y004584D02*
X018142Y004497D01*
X018229Y004584D01*
X018229Y004757D01*
X018055Y004757D02*
X018055Y004584D01*
X017934Y004497D02*
X017934Y004757D01*
X018011Y005497D02*
X018011Y005757D01*
X018184Y005497D01*
X018184Y005757D01*
X018305Y005757D02*
X018435Y005757D01*
X018479Y005714D01*
X018479Y005540D01*
X018435Y005497D01*
X018305Y005497D01*
X018305Y005757D01*
X017890Y005714D02*
X017846Y005757D01*
X017759Y005757D01*
X017716Y005714D01*
X017716Y005540D01*
X017759Y005497D01*
X017846Y005497D01*
X017890Y005540D01*
X017890Y005627D01*
X017803Y005627D01*
X017890Y006497D02*
X017890Y006757D01*
X018011Y006757D02*
X018011Y006584D01*
X018097Y006497D01*
X018184Y006584D01*
X018184Y006757D01*
X018305Y006714D02*
X018349Y006757D01*
X018435Y006757D01*
X018479Y006714D01*
X018479Y006671D01*
X018435Y006627D01*
X018479Y006584D01*
X018479Y006540D01*
X018435Y006497D01*
X018349Y006497D01*
X018305Y006540D01*
X018392Y006627D02*
X018435Y006627D01*
X017890Y006627D02*
X017716Y006627D01*
X017716Y006497D02*
X017716Y006757D01*
X017716Y007497D02*
X017716Y007757D01*
X017716Y007627D02*
X017890Y007627D01*
X018011Y007584D02*
X018011Y007757D01*
X017890Y007757D02*
X017890Y007497D01*
X018011Y007584D02*
X018097Y007497D01*
X018184Y007584D01*
X018184Y007757D01*
X018305Y007627D02*
X018479Y007627D01*
X018435Y007497D02*
X018435Y007757D01*
X018305Y007627D01*
X019966Y007497D02*
X020140Y007497D01*
X020261Y007584D02*
X020347Y007497D01*
X020434Y007584D01*
X020434Y007757D01*
X020261Y007757D02*
X020261Y007584D01*
X020555Y007627D02*
X020729Y007627D01*
X020685Y007497D02*
X020685Y007757D01*
X020555Y007627D01*
X019966Y007757D02*
X019966Y007497D01*
X019966Y006757D02*
X019966Y006497D01*
X020140Y006497D01*
X020261Y006584D02*
X020347Y006497D01*
X020434Y006584D01*
X020434Y006757D01*
X020555Y006714D02*
X020599Y006757D01*
X020685Y006757D01*
X020729Y006714D01*
X020729Y006671D01*
X020685Y006627D01*
X020729Y006584D01*
X020729Y006540D01*
X020685Y006497D01*
X020599Y006497D01*
X020555Y006540D01*
X020642Y006627D02*
X020685Y006627D01*
X020261Y006584D02*
X020261Y006757D01*
X020261Y005757D02*
X020434Y005497D01*
X020434Y005757D01*
X020555Y005757D02*
X020685Y005757D01*
X020729Y005714D01*
X020729Y005540D01*
X020685Y005497D01*
X020555Y005497D01*
X020555Y005757D01*
X020261Y005757D02*
X020261Y005497D01*
X020140Y005540D02*
X020140Y005627D01*
X020053Y005627D01*
X020140Y005540D02*
X020096Y005497D01*
X020009Y005497D01*
X019966Y005540D01*
X019966Y005714D01*
X020009Y005757D01*
X020096Y005757D01*
X020140Y005714D01*
X020261Y004757D02*
X020261Y004497D01*
X020434Y004497D01*
X020555Y004584D02*
X020642Y004497D01*
X020729Y004584D01*
X020729Y004757D01*
X020555Y004757D02*
X020555Y004584D01*
X020599Y003757D02*
X020555Y003714D01*
X020599Y003757D02*
X020685Y003757D01*
X020729Y003714D01*
X020729Y003671D01*
X020555Y003497D01*
X020729Y003497D01*
X020434Y003584D02*
X020434Y003757D01*
X020434Y003584D02*
X020347Y003497D01*
X020261Y003584D01*
X020261Y003757D01*
X020140Y003497D02*
X019966Y003497D01*
X019966Y003757D01*
X019966Y002757D02*
X019966Y002497D01*
X020140Y002497D01*
X020261Y002584D02*
X020347Y002497D01*
X020434Y002584D01*
X020434Y002757D01*
X020555Y002671D02*
X020642Y002757D01*
X020642Y002497D01*
X020555Y002497D02*
X020729Y002497D01*
X020261Y002584D02*
X020261Y002757D01*
X006122Y010384D02*
X006122Y011384D01*
X004522Y011384D01*
X004522Y010384D01*
X006122Y010384D01*
X005722Y010634D02*
X005322Y010884D01*
X005322Y010634D01*
X005322Y010884D02*
X005072Y010884D01*
X005322Y010884D02*
X005322Y011134D01*
X005322Y010884D02*
X005722Y011134D01*
X005722Y010634D01*
X005922Y010884D02*
X005322Y010884D01*
X006120Y011567D02*
X004520Y011567D01*
X004520Y012567D01*
X006120Y012567D01*
X006120Y011567D01*
X005720Y011817D02*
X005320Y012067D01*
X005320Y011817D01*
X005320Y012067D02*
X005070Y012067D01*
X005320Y012067D02*
X005320Y012317D01*
X005320Y012067D02*
X005720Y012317D01*
X005720Y011817D01*
X005920Y012067D02*
X005320Y012067D01*
X006105Y012750D02*
X004505Y012750D01*
X004505Y013750D01*
X006105Y013750D01*
X006105Y012750D01*
X005705Y013000D02*
X005305Y013250D01*
X005305Y013000D01*
X005305Y013250D02*
X005305Y013500D01*
X005305Y013250D02*
X005705Y013500D01*
X005705Y013000D01*
X005905Y013250D02*
X005305Y013250D01*
X005055Y013250D01*
X024220Y018047D02*
X024520Y018047D01*
X024370Y017897D02*
X024370Y018197D01*
X023220Y019247D02*
X023222Y019327D01*
X023228Y019406D01*
X023238Y019485D01*
X023252Y019564D01*
X023269Y019642D01*
X023291Y019719D01*
X023316Y019794D01*
X023346Y019868D01*
X023378Y019941D01*
X023415Y020012D01*
X023455Y020081D01*
X023498Y020148D01*
X023545Y020213D01*
X023594Y020275D01*
X023647Y020335D01*
X023703Y020392D01*
X023761Y020447D01*
X023822Y020498D01*
X023886Y020546D01*
X023952Y020591D01*
X024020Y020633D01*
X024090Y020671D01*
X024162Y020705D01*
X024235Y020736D01*
X024310Y020764D01*
X024387Y020787D01*
X024464Y020807D01*
X024542Y020823D01*
X024621Y020835D01*
X024700Y020843D01*
X024780Y020847D01*
X024860Y020847D01*
X024940Y020843D01*
X025019Y020835D01*
X025098Y020823D01*
X025176Y020807D01*
X025253Y020787D01*
X025330Y020764D01*
X025405Y020736D01*
X025478Y020705D01*
X025550Y020671D01*
X025620Y020633D01*
X025688Y020591D01*
X025754Y020546D01*
X025818Y020498D01*
X025879Y020447D01*
X025937Y020392D01*
X025993Y020335D01*
X026046Y020275D01*
X026095Y020213D01*
X026142Y020148D01*
X026185Y020081D01*
X026225Y020012D01*
X026262Y019941D01*
X026294Y019868D01*
X026324Y019794D01*
X026349Y019719D01*
X026371Y019642D01*
X026388Y019564D01*
X026402Y019485D01*
X026412Y019406D01*
X026418Y019327D01*
X026420Y019247D01*
X026418Y019167D01*
X026412Y019088D01*
X026402Y019009D01*
X026388Y018930D01*
X026371Y018852D01*
X026349Y018775D01*
X026324Y018700D01*
X026294Y018626D01*
X026262Y018553D01*
X026225Y018482D01*
X026185Y018413D01*
X026142Y018346D01*
X026095Y018281D01*
X026046Y018219D01*
X025993Y018159D01*
X025937Y018102D01*
X025879Y018047D01*
X025818Y017996D01*
X025754Y017948D01*
X025688Y017903D01*
X025620Y017861D01*
X025550Y017823D01*
X025478Y017789D01*
X025405Y017758D01*
X025330Y017730D01*
X025253Y017707D01*
X025176Y017687D01*
X025098Y017671D01*
X025019Y017659D01*
X024940Y017651D01*
X024860Y017647D01*
X024780Y017647D01*
X024700Y017651D01*
X024621Y017659D01*
X024542Y017671D01*
X024464Y017687D01*
X024387Y017707D01*
X024310Y017730D01*
X024235Y017758D01*
X024162Y017789D01*
X024090Y017823D01*
X024020Y017861D01*
X023952Y017903D01*
X023886Y017948D01*
X023822Y017996D01*
X023761Y018047D01*
X023703Y018102D01*
X023647Y018159D01*
X023594Y018219D01*
X023545Y018281D01*
X023498Y018346D01*
X023455Y018413D01*
X023415Y018482D01*
X023378Y018553D01*
X023346Y018626D01*
X023316Y018700D01*
X023291Y018775D01*
X023269Y018852D01*
X023252Y018930D01*
X023238Y019009D01*
X023228Y019088D01*
X023222Y019167D01*
X023220Y019247D01*
D13*
X004755Y013250D03*
X004770Y012067D03*
X004772Y010884D03*
D14*
X004147Y010884D03*
X004145Y012067D03*
X004130Y013250D03*
X006480Y013250D03*
X006495Y012067D03*
X006497Y010884D03*
M02*
